<svg xmlns="http://www.w3.org/2000/svg" viewBox="0 0 600 600" fill="none">
  <defs>
    
    <radialGradient id="brainGlow" cx="50%" cy="40%" r="50%">
      <stop offset="0%" stop-color="#0A1628" stop-opacity="0.3"></stop>
      <stop offset="60%" stop-color="#0A1628" stop-opacity="0.08"></stop>
      <stop offset="100%" stop-color="#0A1628" stop-opacity="0"></stop>
    </radialGradient>
    
    <radialGradient id="fieldGlow" cx="50%" cy="50%" r="50%">
      <stop offset="0%" stop-color="#C9654A" stop-opacity="0.6"></stop>
      <stop offset="40%" stop-color="#0A1628" stop-opacity="0.2"></stop>
      <stop offset="100%" stop-color="#0A1628" stop-opacity="0"></stop>
    </radialGradient>
    
    <linearGradient id="coilGrad" x1="0%" y1="0%" x2="100%" y2="100%">
      <stop offset="0%" stop-color="#E6EAF0"></stop>
      <stop offset="50%" stop-color="#FBFAF7"></stop>
      <stop offset="100%" stop-color="#E6EAF0"></stop>
    </linearGradient>
    
    <linearGradient id="pulseGrad" x1="0%" y1="0%" x2="100%" y2="0%">
      <stop offset="0%" stop-color="#0A1628" stop-opacity="0"></stop>
      <stop offset="50%" stop-color="#C9654A" stop-opacity="0.8"></stop>
      <stop offset="100%" stop-color="#0A1628" stop-opacity="0"></stop>
    </linearGradient>
    
    <pattern id="grid" width="30" height="30" patternUnits="userSpaceOnUse">
      <path d="M 30 0 L 0 0 0 30" fill="none" stroke="#0A1628" stroke-width="0.3" opacity="0.1"></path>
    </pattern>
    
    
  </defs>

  
  <rect width="600" height="600" fill="url(#grid)" opacity="0.5"></rect>

  
  <ellipse cx="280" cy="280" rx="250" ry="250" fill="url(#brainGlow)"></ellipse>

  
  
  <path d="M310 120&#xA;    C340 120 370 135 390 160&#xA;    C415 190 425 230 420 270&#xA;    C418 295 410 315 395 340&#xA;    C385 358 380 370 382 390&#xA;    L382 420&#xA;    C382 435 375 445 360 450&#xA;    L290 460&#xA;    C275 462 265 455 262 440&#xA;    L260 420&#xA;    C258 400 250 385 235 370&#xA;    C215 348 200 315 195 280&#xA;    C188 235 195 190 220 155&#xA;    C245 125 275 120 310 120Z" fill="#F4F1EA" stroke="#E6EAF0" stroke-width="2"></path>

  
  <path d="M310 140&#xA;    C335 140 360 152 375 172&#xA;    C395 198 402 230 400 265&#xA;    C398 285 392 305 380 325&#xA;    C370 342 365 355 366 375&#xA;    L260 405&#xA;    C255 388 247 373 236 358&#xA;    C218 338 208 312 205 280&#xA;    C200 242 206 200 225 170&#xA;    C248 142 278 140 310 140Z" fill="#F4F1EA" opacity="0.6"></path>

  
  <g stroke="#D4806A" stroke-width="1.5" fill="none" opacity="0.7">
    <path d="M240 200 C265 195 290 200 310 195 C330 190 350 195 370 205"></path>
    <path d="M230 235 C255 228 280 238 305 230 C325 224 345 230 380 240"></path>
    <path d="M225 270 C250 262 275 272 300 265 C320 260 345 265 390 275"></path>
    <path d="M235 305 C258 298 278 308 300 300 C320 294 345 300 375 310"></path>
    <path d="M250 340 C270 335 290 342 310 336"></path>
  </g>

  
  <path d="M310 145 C308 180 312 220 308 260 C305 290 310 320 308 355" stroke="#D4806A" stroke-width="2" fill="none" opacity="0.5"></path>

  
  <ellipse cx="260" cy="200" rx="45" ry="55" fill="#0A1628" opacity="0.12"></ellipse>

  
  <circle cx="245" cy="185" r="3" fill="#0A1628" opacity="0.8" class="neural-fire"></circle>
  <circle cx="260" cy="195" r="2.5" fill="#1E2A3B" opacity="0.7" class="neural-fire-2"></circle>
  <circle cx="250" cy="210" r="3" fill="#0A1628" opacity="0.8" class="neural-fire-3"></circle>
  <circle cx="270" cy="180" r="2" fill="#C9654A" opacity="0.6" class="neural-fire"></circle>
  <circle cx="240" cy="200" r="2" fill="#1E2A3B" opacity="0.7" class="neural-fire-2"></circle>
  <circle cx="255" cy="175" r="2.5" fill="#0A1628" opacity="0.6" class="neural-fire-3"></circle>
  <circle cx="265" cy="205" r="2" fill="#C9654A" opacity="0.5" class="neural-fire"></circle>

  
  <g stroke="#0A1628" stroke-width="0.8" opacity="0.4">
    <line x1="245" y1="185" x2="260" y2="195"></line>
    <line x1="260" y1="195" x2="250" y2="210"></line>
    <line x1="250" y1="210" x2="240" y2="200"></line>
    <line x1="270" y1="180" x2="255" y2="175"></line>
    <line x1="245" y1="185" x2="255" y2="175"></line>
    <line x1="265" y1="205" x2="260" y2="195"></line>
  </g>

  
  <path d="M210 280 C200 275 192 285 195 300 C198 312 205 315 210 310" stroke="#E6EAF0" stroke-width="2" fill="#F4F1EA"></path>

  
  <path d="M370 265 C380 260 395 262 398 270" stroke="#5A6B82" stroke-width="1.5" fill="none"></path>

  
  
  <rect x="100" y="130" width="22" height="100" rx="6" fill="url(#coilGrad)" stroke="#5A6B82" stroke-width="1.5" transform="rotate(-25 111 180)"></rect>

  
  <path d="M88 115 C70 95 50 100 35 120 C20 140 25 160 30 165" stroke="#5A6B82" stroke-width="3" fill="none" stroke-linecap="round"></path>

  
  <g transform="translate(175, 158) rotate(-25)">
    
    <ellipse cx="-30" cy="0" rx="38" ry="28" fill="#FBFAF7" stroke="#5A6B82" stroke-width="2"></ellipse>
    <ellipse cx="30" cy="0" rx="38" ry="28" fill="#FBFAF7" stroke="#5A6B82" stroke-width="2"></ellipse>

    
    <rect x="-12" y="-18" width="24" height="36" rx="4" fill="#E6EAF0" stroke="#5A6B82" stroke-width="1.5"></rect>

    
    <ellipse cx="-30" cy="0" rx="28" ry="18" fill="none" stroke="#0A1628" stroke-width="1.5" opacity="0.3"></ellipse>
    <ellipse cx="-30" cy="0" rx="22" ry="13" fill="none" stroke="#0A1628" stroke-width="1" opacity="0.2"></ellipse>
    <ellipse cx="30" cy="0" rx="28" ry="18" fill="none" stroke="#0A1628" stroke-width="1.5" opacity="0.3"></ellipse>
    <ellipse cx="30" cy="0" rx="22" ry="13" fill="none" stroke="#0A1628" stroke-width="1" opacity="0.2"></ellipse>

    
    <circle cx="0" cy="0" r="4" fill="#0A1628" opacity="0.8"></circle>
    <circle cx="0" cy="0" r="2" fill="#C9654A"></circle>
  </g>

  
  
  <g transform="translate(218, 195)">
    
    <circle cx="0" cy="0" r="20" fill="none" stroke="#0A1628" stroke-width="1.5" opacity="0.4" class="pulse-ring1"></circle>
    <circle cx="0" cy="0" r="15" fill="none" stroke="#1E2A3B" stroke-width="1.2" opacity="0.3" class="pulse-ring2"></circle>
    <circle cx="0" cy="0" r="10" fill="none" stroke="#C9654A" stroke-width="1" opacity="0.25" class="pulse-ring3"></circle>

    
    <ellipse cx="25" cy="5" rx="35" ry="45" fill="url(#fieldGlow)" opacity="0.4"></ellipse>
  </g>

  
  <g stroke="#0A1628" stroke-width="1.2" opacity="0.5" fill="none" stroke-dasharray="4 4">
    <path d="M220 180 C235 185 245 190 255 195"></path>
    <path d="M218 195 C233 198 243 200 253 202"></path>
    <path d="M220 210 C235 210 245 208 255 205"></path>
  </g>
  
  <g fill="#0A1628" opacity="0.5">
    <polygon points="255,195 250,191 250,199"></polygon>
    <polygon points="253,202 248,198 248,206"></polygon>
    <polygon points="255,205 250,201 250,209"></polygon>
  </g>

  
  
  <g transform="translate(60, 90)">
    <rect x="0" y="0" width="130" height="28" rx="14" fill="#0A1628" opacity="0.1"></rect>
    <text x="65" y="19" text-anchor="middle" font-family="Plus Jakarta Sans, sans-serif" font-size="11" font-weight="600" fill="#0A1628">Figure-8 TMS Coil</text>
  </g>
  <line x1="125" y1="118" x2="145" y2="140" stroke="#0A1628" stroke-width="1" opacity="0.4" stroke-dasharray="3 3"></line>

  
  <g transform="translate(130, 250)">
    <rect x="0" y="0" width="155" height="28" rx="14" fill="#0A1628" opacity="0.1"></rect>
    <text x="78" y="19" text-anchor="middle" font-family="Plus Jakarta Sans, sans-serif" font-size="11" font-weight="600" fill="#0A1628">Left Prefrontal Cortex</text>
  </g>
  <line x1="208" y1="250" x2="245" y2="220" stroke="#0A1628" stroke-width="1" opacity="0.4" stroke-dasharray="3 3"></line>

  
  <g transform="translate(340, 155)">
    <rect x="0" y="0" width="125" height="28" rx="14" fill="#0A1628" opacity="0.1"></rect>
    <text x="63" y="19" text-anchor="middle" font-family="Plus Jakarta Sans, sans-serif" font-size="11" font-weight="600" fill="#0A1628">Magnetic Pulses</text>
  </g>
  <line x1="340" y1="169" x2="275" y2="190" stroke="#0A1628" stroke-width="1" opacity="0.4" stroke-dasharray="3 3"></line>

  
  <g transform="translate(420, 400)" opacity="0.6">
    <rect x="0" y="0" width="150" height="80" rx="12" fill="white" stroke="#E6EAF0" stroke-width="1"></rect>
    <text x="15" y="22" font-family="Plus Jakarta Sans, sans-serif" font-size="9" font-weight="600" fill="#5A6B82" letter-spacing="0.1em">PULSE FREQUENCY</text>
    <text x="15" y="42" font-family="Plus Jakarta Sans, sans-serif" font-size="18" font-weight="700" fill="#0A1628">10 Hz</text>
    <text x="15" y="58" font-family="Plus Jakarta Sans, sans-serif" font-size="9" font-weight="600" fill="#5A6B82" letter-spacing="0.1em">INTENSITY</text>
    <text x="15" y="72" font-family="Plus Jakarta Sans, sans-serif" font-size="14" font-weight="700" fill="#0A1628">120% MT</text>
  </g>

  
  <g transform="translate(420, 340)">
    <rect x="0" y="0" width="140" height="40" rx="20" fill="#f0fdf4" stroke="#bbf7d0" stroke-width="1"></rect>
    <circle cx="22" cy="20" r="8" fill="#22c55e"></circle>
    <path d="M18 20l3 3 5-6" stroke="white" stroke-width="2" stroke-linecap="round" stroke-linejoin="round"></path>
    <text x="40" y="25" font-family="Plus Jakarta Sans, sans-serif" font-size="11" font-weight="600" fill="#16a34a">Non-Invasive</text>
  </g>

  
  <g transform="translate(420, 500)">
    <rect x="0" y="0" width="150" height="40" rx="20" fill="#F4F1EA" stroke="#F4F1EA" stroke-width="1"></rect>
    <text x="20" y="26" font-family="Plus Jakarta Sans, sans-serif" font-size="11" font-weight="700" fill="#0A1628">FDA-Cleared</text>
    <text x="110" y="26" font-family="Plus Jakarta Sans, sans-serif" font-size="9" fill="#1E2A3B">Since 2008</text>
  </g>
</svg>