<svg xmlns="http://www.w3.org/2000/svg" viewBox="0 0 480 360" fill="none">
  <defs>
    <linearGradient id="dBg" x1="0%" y1="0%" x2="100%" y2="100%">
      <stop offset="0%" stop-color="#FBFAF7"></stop>
      <stop offset="100%" stop-color="#FBFAF7"></stop>
    </linearGradient>
    <radialGradient id="fieldR" cx="50%" cy="50%" r="50%">
      <stop offset="0%" stop-color="#0A1628" stop-opacity="0.25"></stop>
      <stop offset="100%" stop-color="#0A1628" stop-opacity="0"></stop>
    </radialGradient>
    
  </defs>
  <rect width="480" height="360" rx="24" fill="url(#dBg)"></rect>

  
  <path d="M0 240 C80 200 200 180 320 190 C400 196 460 210 480 225 L480 360 L0 360Z" fill="#F4F1EA" opacity="0.3"></path>
  <path d="M0 240 C80 200 200 180 320 190 C400 196 460 210 480 225" stroke="#D4806A" stroke-width="2" fill="none"></path>

  
  <g stroke="#C9654A" stroke-width="0.8" opacity="0.2">
    <path d="M50 235 C55 220 60 215 55 200"></path>
    <path d="M80 225 C85 210 88 205 83 190"></path>
    <path d="M420 215 C425 200 428 195 423 180"></path>
    <path d="M450 220 C455 205 458 200 453 185"></path>
  </g>

  
  <g transform="translate(240, 160)">
    
    <ellipse cx="0" cy="50" rx="100" ry="15" fill="#000" opacity="0.03"></ellipse>

    
    <ellipse cx="-65" cy="0" rx="70" ry="48" fill="white" stroke="#5A6B82" stroke-width="2.5"></ellipse>
    
    <ellipse cx="-65" cy="0" rx="55" ry="36" fill="none" stroke="#0A1628" stroke-width="2" opacity="0.25"></ellipse>
    <ellipse cx="-65" cy="0" rx="42" ry="27" fill="none" stroke="#0A1628" stroke-width="1.5" opacity="0.18"></ellipse>
    <ellipse cx="-65" cy="0" rx="30" ry="19" fill="none" stroke="#0A1628" stroke-width="1" opacity="0.12"></ellipse>
    
    <path d="M-30 -30 C-15 -40 -5 -35 -5 -20" stroke="#0A1628" stroke-width="1.5" fill="none" marker-end="url(#arrow)"></path>

    
    <ellipse cx="65" cy="0" rx="70" ry="48" fill="white" stroke="#5A6B82" stroke-width="2.5"></ellipse>
    
    <ellipse cx="65" cy="0" rx="55" ry="36" fill="none" stroke="#0A1628" stroke-width="2" opacity="0.25"></ellipse>
    <ellipse cx="65" cy="0" rx="42" ry="27" fill="none" stroke="#0A1628" stroke-width="1.5" opacity="0.18"></ellipse>
    <ellipse cx="65" cy="0" rx="30" ry="19" fill="none" stroke="#0A1628" stroke-width="1" opacity="0.12"></ellipse>

    
    <rect x="-22" y="-35" width="44" height="70" rx="10" fill="#F4F1EA" stroke="#5A6B82" stroke-width="2"></rect>
    
    <rect x="-15" y="-28" width="30" height="56" rx="6" fill="#E6EAF0"></rect>

    
    <circle cx="0" cy="0" r="8" fill="#0A1628" opacity="0.9"></circle>
    <circle cx="0" cy="0" r="4" fill="#C9654A"></circle>
    <circle cx="0" cy="0" r="2" fill="white" opacity="0.8"></circle>

    
    <circle cx="0" cy="40" r="30" fill="none" stroke="#0A1628" stroke-width="1.5" class="d-pulse"></circle>
    <circle cx="0" cy="40" r="30" fill="none" stroke="#1E2A3B" stroke-width="1" class="d-pulse2"></circle>
    <ellipse cx="0" cy="55" rx="40" ry="35" fill="url(#fieldR)"></ellipse>

    
    <g stroke="#0A1628" stroke-width="1.2" opacity="0.4" stroke-dasharray="4 3">
      <path d="M0 15 L0 80"></path>
      <path d="M-15 18 L-20 75"></path>
      <path d="M15 18 L20 75"></path>
    </g>
    <g fill="#0A1628" opacity="0.4">
      <polygon points="0,80 -4,72 4,72"></polygon>
      <polygon points="-20,75 -24,67 -16,67"></polygon>
      <polygon points="20,75 16,67 24,67"></polygon>
    </g>

    
    <rect x="-10" y="-80" width="20" height="50" rx="6" fill="#E6EAF0" stroke="#5A6B82" stroke-width="1.5"></rect>
    
    <circle cx="0" cy="-80" r="8" fill="#E6EAF0" stroke="#5A6B82" stroke-width="1.5"></circle>
    <circle cx="0" cy="-80" r="3" fill="#5A6B82"></circle>
  </g>

  
  
  <g transform="translate(40, 50)">
    <rect x="0" y="0" width="100" height="24" rx="12" fill="white" stroke="#E6EAF0" stroke-width="1"></rect>
    <text x="50" y="16" text-anchor="middle" font-family="Plus Jakarta Sans, sans-serif" font-size="9" font-weight="600" fill="#0A1628">Left Coil Wing</text>
  </g>
  <line x1="90" y1="74" x2="145" y2="135" stroke="#0A1628" stroke-width="1" opacity="0.3" stroke-dasharray="3 3"></line>

  
  <g transform="translate(340, 50)">
    <rect x="0" y="0" width="105" height="24" rx="12" fill="white" stroke="#E6EAF0" stroke-width="1"></rect>
    <text x="52" y="16" text-anchor="middle" font-family="Plus Jakarta Sans, sans-serif" font-size="9" font-weight="600" fill="#0A1628">Right Coil Wing</text>
  </g>
  <line x1="392" y1="74" x2="335" y2="135" stroke="#0A1628" stroke-width="1" opacity="0.3" stroke-dasharray="3 3"></line>

  
  <g transform="translate(185, 70)">
    <rect x="0" y="0" width="110" height="24" rx="12" fill="#0A1628" opacity="0.1"></rect>
    <text x="55" y="16" text-anchor="middle" font-family="Plus Jakarta Sans, sans-serif" font-size="9" font-weight="700" fill="#0A1628">Focal Point</text>
  </g>
  <line x1="240" y1="94" x2="240" y2="148" stroke="#0A1628" stroke-width="1" opacity="0.4" stroke-dasharray="3 3"></line>

  
  <g transform="translate(340, 285)">
    <rect x="0" y="0" width="120" height="45" rx="10" fill="white" stroke="#E6EAF0" stroke-width="1.5"></rect>
    <text x="15" y="18" font-family="Plus Jakarta Sans, sans-serif" font-size="8" font-weight="600" fill="#5A6B82">PENETRATION DEPTH</text>
    <text x="15" y="36" font-family="Bricolage Grotesque, sans-serif" font-size="18" font-weight="800" fill="#0A1628">1-3 cm</text>
  </g>

  
  <g transform="translate(20, 285)">
    <rect x="0" y="0" width="200" height="50" rx="10" fill="white" stroke="#F4F1EA" stroke-width="1.5"></rect>
    <text x="15" y="18" font-family="Plus Jakarta Sans, sans-serif" font-size="8" font-weight="700" fill="#0A1628">HOW IT FOCUSES</text>
    <text x="15" y="32" font-family="Plus Jakarta Sans, sans-serif" font-size="9" fill="#5A6B82">The figure-8 shape creates a</text>
    <text x="15" y="44" font-family="Plus Jakarta Sans, sans-serif" font-size="9" fill="#5A6B82">focused field at the intersection</text>
  </g>
</svg>