<svg xmlns="http://www.w3.org/2000/svg" viewBox="0 0 480 360" fill="none">
  <defs>
    <linearGradient id="rBg" x1="0%" y1="0%" x2="100%" y2="100%">
      <stop offset="0%" stop-color="#FBFAF7"></stop>
      <stop offset="100%" stop-color="#f0fdf4"></stop>
    </linearGradient>
    <linearGradient id="barGrad" x1="0%" y1="0%" x2="0%" y2="100%">
      <stop offset="0%" stop-color="#0A1628"></stop>
      <stop offset="100%" stop-color="#0A1628"></stop>
    </linearGradient>
    <linearGradient id="lineGrad" x1="0%" y1="0%" x2="100%" y2="0%">
      <stop offset="0%" stop-color="#0A1628"></stop>
      <stop offset="100%" stop-color="#22c55e"></stop>
    </linearGradient>
  </defs>
  <rect width="480" height="360" rx="24" fill="url(#rBg)"></rect>

  
  <rect x="30" y="30" width="280" height="210" rx="16" fill="white" stroke="#E6EAF0" stroke-width="1.5"></rect>

  
  <text x="50" y="58" font-family="Plus Jakarta Sans, sans-serif" font-size="11" font-weight="700" fill="#0A1628">Depression Score Over Treatment</text>
  <text x="50" y="72" font-family="Plus Jakarta Sans, sans-serif" font-size="9" fill="#5A6B82">PHQ-9 Score by Week</text>

  
  <text x="42" y="102" text-anchor="end" font-family="Plus Jakarta Sans, sans-serif" font-size="8" fill="#5A6B82">20</text>
  <text x="42" y="132" text-anchor="end" font-family="Plus Jakarta Sans, sans-serif" font-size="8" fill="#5A6B82">15</text>
  <text x="42" y="162" text-anchor="end" font-family="Plus Jakarta Sans, sans-serif" font-size="8" fill="#5A6B82">10</text>
  <text x="42" y="192" text-anchor="end" font-family="Plus Jakarta Sans, sans-serif" font-size="8" fill="#5A6B82">5</text>
  <text x="42" y="222" text-anchor="end" font-family="Plus Jakarta Sans, sans-serif" font-size="8" fill="#5A6B82">0</text>

  
  <g stroke="#F4F1EA" stroke-width="1">
    <line x1="50" y1="98" x2="295" y2="98"></line>
    <line x1="50" y1="128" x2="295" y2="128"></line>
    <line x1="50" y1="158" x2="295" y2="158"></line>
    <line x1="50" y1="188" x2="295" y2="188"></line>
    <line x1="50" y1="218" x2="295" y2="218"></line>
  </g>

  
  <rect x="50" y="188" width="245" height="30" rx="0" fill="#22c55e" opacity="0.06"></rect>
  <text x="255" y="210" font-family="Plus Jakarta Sans, sans-serif" font-size="7" font-weight="600" fill="#22c55e">REMISSION</text>

  
  <polyline points="65,102 100,108 135,118 170,132 205,158 240,182 275,202" stroke="url(#lineGrad)" stroke-width="3" fill="none" stroke-linecap="round" stroke-linejoin="round"></polyline>

  
  <circle cx="65" cy="102" r="4" fill="white" stroke="#0A1628" stroke-width="2"></circle>
  <circle cx="100" cy="108" r="4" fill="white" stroke="#0A1628" stroke-width="2"></circle>
  <circle cx="135" cy="118" r="4" fill="white" stroke="#0A1628" stroke-width="2"></circle>
  <circle cx="170" cy="132" r="4" fill="white" stroke="#1E2A3B" stroke-width="2"></circle>
  <circle cx="205" cy="158" r="4" fill="white" stroke="#1E2A3B" stroke-width="2"></circle>
  <circle cx="240" cy="182" r="4" fill="white" stroke="#22c55e" stroke-width="2"></circle>
  <circle cx="275" cy="202" r="5" fill="#22c55e" stroke="white" stroke-width="2"></circle>

  
  <text x="65" y="232" text-anchor="middle" font-family="Plus Jakarta Sans, sans-serif" font-size="8" fill="#5A6B82">Wk 1</text>
  <text x="135" y="232" text-anchor="middle" font-family="Plus Jakarta Sans, sans-serif" font-size="8" fill="#5A6B82">Wk 3</text>
  <text x="205" y="232" text-anchor="middle" font-family="Plus Jakarta Sans, sans-serif" font-size="8" fill="#5A6B82">Wk 5</text>
  <text x="275" y="232" text-anchor="middle" font-family="Plus Jakarta Sans, sans-serif" font-size="8" font-weight="700" fill="#22c55e">Wk 7</text>

  
  <g transform="translate(275, 195)">
    <rect x="8" y="-18" width="55" height="20" rx="6" fill="#22c55e"></rect>
    <text x="35" y="-4" text-anchor="middle" font-family="Plus Jakarta Sans, sans-serif" font-size="8" font-weight="700" fill="white">Remission!</text>
  </g>

  
  
  <g transform="translate(330, 30)">
    <rect x="0" y="0" width="120" height="70" rx="12" fill="white" stroke="#E6EAF0" stroke-width="1.5"></rect>
    <text x="15" y="22" font-family="Plus Jakarta Sans, sans-serif" font-size="8" font-weight="600" fill="#5A6B82" letter-spacing="0.05em">RESPONSE RATE</text>
    <text x="15" y="48" font-family="Bricolage Grotesque, sans-serif" font-size="28" font-weight="800" fill="#0A1628">83%</text>
    <text x="68" y="48" font-family="Plus Jakarta Sans, sans-serif" font-size="9" fill="#22c55e" font-weight="600">+12%</text>
    <rect x="15" y="55" width="90" height="4" rx="2" fill="#F4F1EA"></rect>
    <rect x="15" y="55" width="75" height="4" rx="2" fill="#0A1628"></rect>
  </g>

  
  <g transform="translate(330, 112)">
    <rect x="0" y="0" width="120" height="70" rx="12" fill="white" stroke="#E6EAF0" stroke-width="1.5"></rect>
    <text x="15" y="22" font-family="Plus Jakarta Sans, sans-serif" font-size="8" font-weight="600" fill="#5A6B82" letter-spacing="0.05em">REMISSION RATE</text>
    <text x="15" y="48" font-family="Bricolage Grotesque, sans-serif" font-size="28" font-weight="800" fill="#22c55e">62%</text>
    <rect x="15" y="55" width="90" height="4" rx="2" fill="#f0fdf4"></rect>
    <rect x="15" y="55" width="56" height="4" rx="2" fill="#22c55e"></rect>
  </g>

  
  <g transform="translate(330, 194)">
    <rect x="0" y="0" width="120" height="50" rx="12" fill="white" stroke="#E6EAF0" stroke-width="1.5"></rect>
    <text x="15" y="20" font-family="Plus Jakarta Sans, sans-serif" font-size="8" font-weight="600" fill="#5A6B82" letter-spacing="0.05em">AVG SESSIONS</text>
    <text x="15" y="40" font-family="Bricolage Grotesque, sans-serif" font-size="22" font-weight="800" fill="#0A1628">36</text>
    <text x="45" y="40" font-family="Plus Jakarta Sans, sans-serif" font-size="9" fill="#5A6B82">sessions</text>
  </g>

  
  <g transform="translate(30, 260)">
    <rect x="0" y="0" width="420" height="75" rx="16" fill="white" stroke="#E6EAF0" stroke-width="1.5"></rect>
    <text x="20" y="22" font-family="Plus Jakarta Sans, sans-serif" font-size="10" font-weight="700" fill="#0A1628">Patient Satisfaction</text>

    
    <g transform="translate(20, 35)">
      
      <rect x="0" y="0" width="90" height="28" rx="8" fill="#f0fdf4"></rect>
      <text x="10" y="19" font-family="Plus Jakarta Sans, sans-serif" font-size="14">😊</text>
      <text x="30" y="19" font-family="Plus Jakarta Sans, sans-serif" font-size="9" font-weight="700" fill="#16a34a">78% Great</text>

      
      <rect x="100" y="0" width="85" height="28" rx="8" fill="#F4F1EA"></rect>
      <text x="110" y="19" font-family="Plus Jakarta Sans, sans-serif" font-size="14">🙂</text>
      <text x="130" y="19" font-family="Plus Jakarta Sans, sans-serif" font-size="9" font-weight="700" fill="#0A1628">16% Good</text>

      
      <rect x="195" y="0" width="80" height="28" rx="8" fill="#F4F1EA"></rect>
      <text x="205" y="19" font-family="Plus Jakarta Sans, sans-serif" font-size="14">😐</text>
      <text x="225" y="19" font-family="Plus Jakarta Sans, sans-serif" font-size="9" font-weight="600" fill="#5A6B82">6% Okay</text>
    </g>

    
    <g transform="translate(330, 32)">
      <text x="0" y="15" font-family="Plus Jakarta Sans, sans-serif" font-size="22" font-weight="800" fill="#0A1628">4.8</text>
      <text x="38" y="10" font-family="Plus Jakarta Sans, sans-serif" font-size="10" fill="#C9654A">★★★★★</text>
      <text x="38" y="24" font-family="Plus Jakarta Sans, sans-serif" font-size="8" fill="#5A6B82">avg rating</text>
    </g>
  </g>
</svg>