<svg xmlns="http://www.w3.org/2000/svg" viewBox="0 0 128 128">
  <!-- Brain outline -->
  <path d="M64 16c-6 0-11.5 2.2-15.8 5.8C44.5 18 39.5 16 34 16c-13.8 0-22 11.2-22 24 0 8.5 3.5 16 9 21.5C17.5 66 16 71.5 16 78c0 14 11 26 26 26 4 0 7.8-1 11.2-2.8C56 104.5 59.8 106 64 106s8-1.5 10.8-4.8C78.2 103 82 104 86 104c15 0 26-12 26-26 0-6.5-1.5-12-5-16.5C112.5 56 116 48.5 116 40c0-12.8-8.2-24-22-24-5.5 0-10.5 2-14.2 5.8C75.5 18.2 70 16 64 16z" fill="#5F00C2" opacity="0.15"/>
  <path d="M64 16c-6 0-11.5 2.2-15.8 5.8C44.5 18 39.5 16 34 16c-13.8 0-22 11.2-22 24 0 8.5 3.5 16 9 21.5C17.5 66 16 71.5 16 78c0 14 11 26 26 26 4 0 7.8-1 11.2-2.8C56 104.5 59.8 106 64 106s8-1.5 10.8-4.8C78.2 103 82 104 86 104c15 0 26-12 26-26 0-6.5-1.5-12-5-16.5C112.5 56 116 48.5 116 40c0-12.8-8.2-24-22-24-5.5 0-10.5 2-14.2 5.8C75.5 18.2 70 16 64 16z" fill="none" stroke="#5F00C2" stroke-width="4" stroke-linejoin="round"/>
  <!-- Brain center line -->
  <path d="M64 24v76" stroke="#5F00C2" stroke-width="3" stroke-linecap="round" opacity="0.5"/>
  <!-- Brain folds left -->
  <path d="M64 40c-8 0-16 4-20 10M64 60c-10 0-22 4-26 12M64 80c-6 0-14 3-18 8" stroke="#5F00C2" stroke-width="3" stroke-linecap="round" fill="none" opacity="0.6"/>
  <!-- Brain folds right -->
  <path d="M64 40c8 0 16 4 20 10M64 60c10 0 22 4 26 12M64 80c6 0 14 3 18 8" stroke="#5F00C2" stroke-width="3" stroke-linecap="round" fill="none" opacity="0.6"/>
  <!-- TMS pulse lines -->
  <path d="M20 36l-8-4M20 44l-10 0M20 52l-8 4" stroke="#7C3AED" stroke-width="3" stroke-linecap="round" opacity="0.8"/>
  <circle cx="10" cy="44" r="3" fill="#7C3AED" opacity="0.8"/>
</svg>
