<svg xmlns="http://www.w3.org/2000/svg" width="260" height="60" viewBox="0 0 260 60"><g fill="none" fill-rule="evenodd"><g fill-rule="nonzero" transform="translate(145 20)"><path fill="#1355E9" d="M92.1350982,18.590998 C92.1350982,19.1988028 91.6909398,19.6615633 91.0802221,19.6615633 C90.4695043,19.6615633 90.018406,19.1803845 90.018406,18.590998 C90.018406,18.0016116 90.4833843,17.5066191 91.0802221,17.5066191 C91.6770599,17.5066191 92.1350982,17.997007 92.1350982,18.590998 Z M90.2219786,18.590998 C90.2219786,19.0721768 90.5921106,19.4750777 91.0802221,19.4750777 C91.5683336,19.4750777 91.9384656,19.0928974 91.9384656,18.590998 C91.9384656,18.0890987 91.563707,17.6977092 91.0802221,17.6977092 C90.5967372,17.6977092 90.2219786,18.1006101 90.2219786,18.590998 Z M90.6707636,18.0062162 L91.1056687,18.0062162 C91.2745414,18.0062162 91.5359471,18.0545643 91.5359471,18.3400483 C91.5359471,18.5564637 91.3740143,18.6347416 91.2259615,18.6531599 L91.6053468,19.1550593 L91.357821,19.1550593 L90.9969424,18.6646713 L90.8835895,18.6646713 L90.8835895,19.1550593 L90.6707636,19.1550593 L90.6707636,18.0062162 L90.6707636,18.0062162 Z M90.8835895,18.1880972 L90.8835895,18.4966041 L91.0964154,18.4966041 C91.2097683,18.4966041 91.3138679,18.4758835 91.3138679,18.3400483 C91.3138679,18.2042132 91.2097683,18.1880972 91.0964154,18.1880972 L90.8835895,18.1880972 Z M112.867115,18.590998 C112.867115,19.1988028 112.422956,19.6615633 111.812238,19.6615633 C111.201521,19.6615633 110.750422,19.1803845 110.750422,18.590998 C110.750422,18.0016116 111.215401,17.5066191 111.812238,17.5066191 C112.409076,17.5066191 112.867115,17.997007 112.867115,18.590998 Z M110.953995,18.590998 C110.953995,19.0721768 111.324127,19.4750777 111.812238,19.4750777 C112.30035,19.4750777 112.670482,19.0928974 112.670482,18.590998 C112.670482,18.0890987 112.295723,17.6977092 111.812238,17.6977092 C111.328754,17.6977092 110.953995,18.1006101 110.953995,18.590998 Z M111.40278,18.0062162 L111.837685,18.0062162 C112.006558,18.0062162 112.267963,18.0545643 112.267963,18.3400483 C112.267963,18.5564637 112.106031,18.6347416 111.957978,18.6531599 L112.337363,19.1550593 L112.089837,19.1550593 L111.728959,18.6646713 L111.615606,18.6646713 L111.615606,19.1550593 L111.40278,19.1550593 L111.40278,18.0062162 L111.40278,18.0062162 Z M111.615606,18.1880972 L111.615606,18.4966041 L111.828432,18.4966041 C111.941785,18.4966041 112.045884,18.4758835 112.045884,18.3400483 C112.045884,18.2042132 111.941785,18.1880972 111.828432,18.1880972 L111.615606,18.1880972 Z"/><g transform="translate(95.265)"><polygon fill="#1355E9" points="19.735 14.191 14.241 14.191 14.243 19.662 5.496 19.662 5.496 14.191 0 14.191 0 5.47 5.496 5.47 5.496 0 14.241 0 14.241 5.47 19.735 5.47"/><path fill="#FFF" d="M4.97827486,7.54460688 L8.61482137,7.54460688 C8.97570003,7.54690917 9.26486563,7.44330609 9.43373833,7.26833199 C9.64887753,7.04961437 9.66507081,6.72038678 9.36896524,6.35892713 C8.84384052,5.7188903 9.29725217,5.10648095 9.85013679,5.12720157 C10.4007081,5.15022447 10.8564331,5.7188903 10.3336217,6.35892713 C10.0352028,6.72038678 10.051396,7.04731208 10.2688486,7.26833199 C10.4354079,7.4410038 10.7268869,7.54690917 11.0877655,7.54690917 L14.8191584,7.54690917 C14.4258931,6.69966617 14.3032869,6.47404167 13.6277961,5.8938644 C12.7325394,5.12259698 11.0646323,4.41118913 9.89408996,4.41118913 C8.39736884,4.41118913 7.04407387,5.01669161 6.06322417,5.9928629 C5.61443917,6.43950731 5.24662053,6.96442961 4.97596154,7.54460688 L4.97827486,7.54460688 Z M6.5050692,14.0094394 C6.85206791,13.3601934 8.36729562,10.5490964 8.8415272,9.66731898 C9.36665192,8.68654311 8.79294738,8.27673535 8.01798359,8.23068954 C7.29391294,8.1892483 6.11643064,7.99585588 4.79552221,7.9659261 C4.58963631,8.53689421 4.47628339,9.16081501 4.47628339,9.80315414 C4.47628339,11.5022447 5.26744046,13.0194544 6.5050692,14.0094394 Z M12.9014121,14.2903189 C12.9014121,14.2903189 10.4654812,10.78393 10.3313083,10.5560032 C10.1925089,10.3303787 10.0768426,10.189939 9.84782346,10.189939 C9.61880431,10.189939 9.50313808,10.3280764 9.36665192,10.5560032 C9.24635903,10.7563025 7.28465964,13.5927248 6.82893466,14.2511799 C7.70105809,14.8497755 8.75593418,15.1951191 9.89408996,15.1951191 C11.0322457,15.1951191 12.0431687,14.861287 12.9014121,14.2903189 Z M15.3118965,9.80315414 C15.3118965,9.15390814 15.1985436,8.53228963 14.9880311,7.95671693 C13.6324228,7.97973984 12.4202406,8.18694601 11.68229,8.23068954 C10.9026995,8.27673535 10.3313083,8.6888454 10.8541197,9.66731898 C11.3838711,10.6457926 13.1443112,13.9265569 13.213711,14.0646944 C14.4906662,13.0770116 15.3118965,11.5367791 15.3118965,9.80545643 L15.3118965,9.80315414 Z"/><path fill="#1355E9" d="M8.77212745,6.84010591 L6.27605005,6.84010591 C6.82662134,6.11027973 7.6270317,5.56233452 8.47370856,5.38045355 C8.19842292,6.33590422 8.77212745,6.40497295 8.77212745,6.84010591 Z M13.4242235,6.84010591 C12.7949992,6.21388281 12.0732419,5.56233452 11.2242517,5.38045355 C11.4995373,6.33820652 10.9258328,6.40727524 10.9258328,6.84010591 L13.4242235,6.84010591 Z M9.85013679,11.2167607 C9.69051738,11.2167607 7.90463067,14.0232531 7.90463067,14.0232531 C8.42975539,14.2949234 9.09599292,14.4330609 9.85013679,14.4330609 C10.6042807,14.4330609 11.2705182,14.2972257 11.7979562,14.0232531 C11.7979562,14.0232531 10.0097562,11.2167607 9.85013679,11.2167607 Z M11.7516897,8.96051571 C11.5481172,8.98353862 11.3630512,9.00425924 11.5481172,9.34730056 C11.7285565,9.6880396 13.4010903,12.8329688 13.4010903,12.8329688 C14.2246339,11.8084494 14.7520719,10.530678 14.4328331,8.75330954 C14.4328331,8.75330954 11.9136225,8.95821342 11.7516897,8.95821342 L11.7516897,8.96051571 Z M7.94858384,8.96051571 C7.78896444,8.96051571 5.26975378,8.75561183 5.26975378,8.75561183 C4.94820164,10.5329803 5.47563968,11.8107517 6.2991833,12.8352711 C6.2991833,12.8352711 7.97171709,9.69034189 8.15678307,9.34960285 C8.3372224,9.00656153 8.15678307,8.98353862 7.94858384,8.962818 L7.94858384,8.96051571 Z"/></g><path fill="#1355E9" d="M12.0917485,15.9525728 L4.8417887,15.9525728 L3.39133408,19.6615633 L0,19.6615633 L6.65312198,3.1449292 L10.4585412,3.1449292 L17.1394231,19.6615633 L13.5398898,19.6615633 L12.0894351,15.9525728 L12.0917485,15.9525728 Z M11.0044858,13.0931277 L8.46676859,6.57534247 L5.92905134,13.0931277 L11.0021725,13.0931277 L11.0044858,13.0931277 Z M18.427945,7.32128468 L21.5856332,7.32128468 L21.5856332,9.07332796 C22.2333642,7.75871993 23.4756196,6.98515022 25.1065135,6.98515022 C27.9542163,6.98515022 29.7933095,8.96972488 29.7933095,12.1906297 L29.7933095,19.6638655 L26.6356212,19.6638655 L26.6356212,12.6556924 C26.6356212,10.9796247 25.6779047,9.92287326 24.1233505,9.92287326 C22.5687963,9.92287326 21.5856332,10.9796247 21.5856332,12.6556924 L21.5856332,19.6638655 L18.427945,19.6638655 L18.427945,7.31898239 L18.427945,7.32128468 Z M30.9592251,7.32128468 L33.1337504,7.32128468 L33.1337504,4.12570508 L36.3446452,4.12570508 L36.3446452,7.32128468 L39.6596395,7.32128468 L39.6596395,10.1024519 L36.3446452,10.1024519 L36.3446452,15.3585818 C36.3446452,16.5166341 36.8119368,17.0576724 37.7418933,17.0576724 C38.3364178,17.0576724 38.907809,16.7998158 39.2177945,16.4406585 L40.617356,18.7843905 C39.9441785,19.4543571 38.7782628,19.9953954 37.2514685,19.9953954 C34.7415111,19.9953954 33.1360637,18.4505583 33.1360637,15.4345574 L33.1360637,10.1001496 L30.9615385,10.1001496 L30.9615385,7.31898239 L30.9592251,7.32128468 Z M42.1557169,1.93622655 L45.3134052,1.93622655 L45.3134052,9.07332796 C45.9611361,7.75871993 47.2033915,6.98515022 48.8342855,6.98515022 C51.6819883,6.98515022 53.5210814,8.96972488 53.5210814,12.1906297 L53.5210814,19.6638655 L50.3633931,19.6638655 L50.3633931,12.6556924 C50.3633931,10.9796247 49.4056767,9.92287326 47.8511225,9.92287326 C46.2965682,9.92287326 45.3134052,10.9796247 45.3134052,12.6556924 L45.3134052,19.6638655 L42.1557169,19.6638655 L42.1557169,1.93392425 L42.1557169,1.93622655 Z M55.2329417,13.4799125 C55.2329417,9.89754806 57.9002052,6.98745252 61.4719786,6.98745252 C65.043752,6.98745252 67.736462,9.69264418 67.736462,13.2496834 C67.736462,13.6617935 67.7110154,14.1521814 67.657809,14.3570853 L58.4669697,14.3570853 C58.8024018,16.0584782 60.0978637,17.2418556 61.98785,17.2418556 C63.255552,17.2418556 64.317368,16.7008173 65.043752,15.9548751 L66.674646,18.1190284 C65.7169295,19.1757799 63.9564894,20 61.8860637,20 C58.027438,20 55.2329417,17.0876022 55.2329417,13.4822148 L55.2329417,13.4799125 Z M58.5479361,12.1653045 L64.4769874,12.1653045 C64.0883489,10.5168643 62.9756397,9.63969149 61.5251851,9.63969149 C60.0747304,9.63969149 58.9365747,10.6711178 58.5479361,12.1653045 L58.5479361,12.1653045 Z M69.5015288,19.6638655 L69.5015288,7.31898239 L72.6592171,7.31898239 L72.6592171,9.19995395 C73.306948,7.86002072 74.5237568,6.98284793 76.1546508,6.98284793 C78.0446371,6.98284793 79.4950917,7.91067112 80.2191624,9.55911132 C80.8668933,8.0902498 82.0582556,6.98284793 84.0245816,6.98284793 C86.8977309,6.98284793 88.7877173,8.8891447 88.7877173,12.1883274 L88.7877173,19.6615633 L85.6022691,19.6615633 L85.6022691,12.6533901 C85.6022691,10.9773224 84.6699992,9.92057097 83.1686514,9.92057097 C81.6673037,9.92057097 80.7095872,10.9773224 80.7095872,12.6533901 L80.7095872,19.6615633 L77.5518989,19.6615633 L77.5518989,12.6533901 C77.5518989,10.9773224 76.6196291,9.92057097 75.1182813,9.92057097 C73.6169335,9.92057097 72.6592171,10.9773224 72.6592171,12.6533901 L72.6592171,19.6615633 L69.5015288,19.6615633 L69.5015288,19.6638655 Z"/></g><g fill-rule="nonzero" transform="translate(0 20)"><path fill="#1355E9" d="M91.9639583,18.5997479 C91.9639583,19.2047668 91.520625,19.6654062 90.9110417,19.6654062 C90.3014583,19.6654062 89.8511979,19.1864329 89.8511979,18.5997479 C89.8511979,18.0130629 90.3153125,17.5203392 90.9110417,17.5203392 C91.5067708,17.5203392 91.9639583,18.0084794 91.9639583,18.5997479 Z M90.0543924,18.5997479 C90.0543924,19.0787212 90.4238368,19.4797754 90.9110417,19.4797754 C91.3982465,19.4797754 91.767691,19.0993469 91.767691,18.5997479 C91.767691,18.100149 91.3936285,17.7105535 90.9110417,17.7105535 C90.4284549,17.7105535 90.0543924,18.1116077 90.0543924,18.5997479 Z M90.5023438,18.0176464 L90.936441,18.0176464 C91.105,18.0176464 91.3659201,18.0657729 91.3659201,18.3499484 C91.3659201,18.5653718 91.2042882,18.6432909 91.0565104,18.6616248 L91.435191,19.1612238 L91.188125,19.1612238 L90.8279167,18.6730835 L90.7147743,18.6730835 L90.7147743,19.1612238 L90.5023438,19.1612238 L90.5023438,18.0176464 L90.5023438,18.0176464 Z M90.7147743,18.1986937 L90.7147743,18.5057866 L90.9272049,18.5057866 C91.0403472,18.5057866 91.1442535,18.485161 91.1442535,18.3499484 C91.1442535,18.2147359 91.0403472,18.1986937 90.9272049,18.1986937 L90.7147743,18.1986937 Z M112.657465,18.5997479 C112.657465,19.2047668 112.214132,19.6654062 111.604549,19.6654062 C110.994965,19.6654062 110.544705,19.1864329 110.544705,18.5997479 C110.544705,18.0130629 111.008819,17.5203392 111.604549,17.5203392 C112.200278,17.5203392 112.657465,18.0084794 112.657465,18.5997479 Z M110.747899,18.5997479 C110.747899,19.0787212 111.117344,19.4797754 111.604549,19.4797754 C112.091753,19.4797754 112.461198,19.0993469 112.461198,18.5997479 C112.461198,18.100149 112.087135,17.7105535 111.604549,17.7105535 C111.121962,17.7105535 110.747899,18.1116077 110.747899,18.5997479 Z M111.195851,18.0176464 L111.629948,18.0176464 C111.798507,18.0176464 112.059427,18.0657729 112.059427,18.3499484 C112.059427,18.5653718 111.897795,18.6432909 111.750017,18.6616248 L112.128698,19.1612238 L111.881632,19.1612238 L111.521424,18.6730835 L111.408281,18.6730835 L111.408281,19.1612238 L111.195851,19.1612238 L111.195851,18.0176464 L111.195851,18.0176464 Z M111.408281,18.1986937 L111.408281,18.5057866 L111.620712,18.5057866 C111.733854,18.5057866 111.83776,18.485161 111.83776,18.3499484 C111.83776,18.2147359 111.733854,18.1986937 111.620712,18.1986937 L111.408281,18.1986937 Z M131.092743,18.5997479 C131.092743,19.2047668 130.64941,19.6654062 130.039826,19.6654062 C129.430243,19.6654062 128.979983,19.1864329 128.979983,18.5997479 C128.979983,18.0130629 129.444097,17.5203392 130.039826,17.5203392 C130.635556,17.5203392 131.092743,18.0084794 131.092743,18.5997479 Z M129.183177,18.5997479 C129.183177,19.0787212 129.552622,19.4797754 130.039826,19.4797754 C130.527031,19.4797754 130.896476,19.0993469 130.896476,18.5997479 C130.896476,18.100149 130.522413,17.7105535 130.039826,17.7105535 C129.55724,17.7105535 129.183177,18.1116077 129.183177,18.5997479 Z M129.631128,18.0176464 L130.065226,18.0176464 C130.233785,18.0176464 130.494705,18.0657729 130.494705,18.3499484 C130.494705,18.5653718 130.333073,18.6432909 130.185295,18.6616248 L130.563976,19.1612238 L130.31691,19.1612238 L129.956701,18.6730835 L129.843559,18.6730835 L129.843559,19.1612238 L129.631128,19.1612238 L129.631128,18.0176464 L129.631128,18.0176464 Z M129.843559,18.1986937 L129.843559,18.5057866 L130.05599,18.5057866 C130.169132,18.5057866 130.273038,18.485161 130.273038,18.3499484 C130.273038,18.2147359 130.169132,18.1986937 130.05599,18.1986937 L129.843559,18.1986937 Z"/><g transform="translate(95.088)"><g transform="translate(22.35)"><path fill="#1355E9" d="M15.5628472,5.63996792 C15.5628472,11.978916 11.9769271,16.2232153 11.0925694,17.1536611 C10.2105208,18.0841068 8.45796875,19.5210267 7.78142361,19.6654062 C7.10256944,19.5210267 5.35232639,18.0841068 4.47027778,17.1536611 C3.58592014,16.2232153 0,11.978916 0,5.63996792 C0,3.2565601 0.447951389,1.32004125 1.21223958,0 C3.1171875,1.00378137 5.01520833,1.51254727 7.78142361,1.51254727 C10.5476389,1.51254727 12.4456597,1.00378137 14.3506076,0 C15.1148958,1.31774951 15.5628472,3.2565601 15.5628472,5.63996792 Z"/><path fill="#FFF" d="M14.1658854,5.58267446 C14.1658854,4.36117795 13.9742361,2.58737252 13.547066,1.94797754 L13.4754861,1.98922883 C12.3140451,2.60112295 10.1527951,3.13280623 7.78142361,3.13280623 C5.41005208,3.13280623 3.17491319,2.55987166 2.01347222,1.94797754 C1.58630208,2.58737252 1.39465278,4.36117795 1.39465278,5.58267446 C1.39465278,11.3005615 4.39177083,14.9719262 4.80046875,15.4646499 C5.35232639,16.1338375 7.40967014,17.9695199 7.78142361,18.0566059 C8.15086806,17.9695199 10.2082118,16.1338375 10.7623785,15.4646499 C11.1687674,14.9696345 14.1658854,11.3005615 14.1658854,5.58267446 L14.1658854,5.58267446 Z M13.1914757,2.88071502 C13.5747743,3.45594133 13.6532813,4.938696 13.6209549,6.03643864 C13.4547049,11.7061992 10.8362674,14.4860777 10.4668229,14.9329667 C9.97038194,15.5356938 8.11623264,17.2567893 7.78142361,17.3438753 C7.44430556,17.2567893 5.59015625,15.5356938 5.09140625,14.9329667 C4.72196181,14.4860777 2.10583333,11.7061992 1.93958333,6.03873038 C1.90725694,4.938696 1.98345486,3.45594133 2.36675347,2.88300676 C3.41505208,3.43302395 5.64095486,3.74699209 7.77911458,3.74699209 C9.91034722,3.74699209 12.1408681,3.43531569 13.1891667,2.88300676 L13.1914757,2.88071502 Z M7.32885417,15.1552653 L7.31730903,14.6167068 C7.06793403,14.7129598 6.86935764,15.0819296 6.87166667,15.3844391 C6.87166667,15.4417326 6.88782986,15.6777816 7.00097222,15.7373668 C7.04253472,15.7579924 7.07486111,15.7373668 7.09333333,15.7075742 C7.17645833,15.5838203 7.15798611,15.2996448 7.32885417,15.1552653 L7.32885417,15.1552653 Z M7.91534722,14.0758565 C7.86454861,14.0116879 7.75833333,13.9131431 7.58977431,13.8650166 C7.48355903,13.8329323 7.48355903,13.8420992 7.39119792,13.8077232 C7.41197917,14.3141973 7.43737847,14.9260914 7.44430556,15.2858944 C7.45354167,15.638822 7.46508681,16.0742523 7.46508681,16.1544632 C7.67059028,16.2942592 7.92920139,16.1773805 7.92920139,16.1773805 C7.93381944,16.1200871 7.98,15.5677782 7.99154514,14.9696345 C7.99385417,14.7244185 8.0215625,14.1789848 7.91534722,14.0735648 L7.91534722,14.0758565 Z M8.21090278,13.2095795 C8.11623264,13.1706199 7.87378472,13.0789504 7.75833333,13.0308239 C7.61055556,12.9689469 7.35194444,12.8383179 7.24803819,12.8016501 C7.15105903,12.7695657 6.98942708,12.7466483 7.19954861,12.6366449 C7.19262153,12.4830984 7.17414931,12.3776785 7.16722222,12.2607998 C7.16722222,12.1668385 7.15105903,12.0545434 7.14182292,11.9422482 C6.29210069,11.9491234 5.95036458,13.2439555 7.33578125,13.5877163 C7.53897569,13.6381345 7.60131944,13.6587602 7.68444444,13.7000115 C7.83684028,13.7802223 7.896875,13.8283488 7.96845486,13.8948092 C8.05619792,13.9773118 8.10930556,14.0873152 8.10930556,14.2339865 L8.10930556,14.8940071 C8.90592014,14.4814942 8.98442708,13.5441733 8.21090278,13.2095795 Z M8.03079861,12.1576716 C8.03079861,12.0499599 8.04465278,11.9055804 8.05157986,11.7955769 C8.05388889,11.742867 8.04234375,11.5755701 8.04465278,11.5343188 C7.90611111,11.497651 7.90380208,11.5343188 7.62671875,11.5068179 C7.47663194,11.4907758 7.40967014,11.4724418 7.28498264,11.4655666 C7.28036458,11.5664031 7.28960069,11.8482869 7.29652778,11.935373 L7.315,12.2310072 L7.315,12.4624728 C7.315,12.4899736 7.31961806,12.618311 7.32192708,12.6481036 C7.42121528,12.7008136 7.50895833,12.7856079 7.67059028,12.8497766 C7.78373961,12.8910278 7.93151042,12.9620717 8.04003472,12.9781139 C8.04003472,12.8772774 8.03541667,12.6595623 8.04003472,12.5541423 C8.04234375,12.3547611 8.02848958,12.3616363 8.03310764,12.1576716 L8.03079861,12.1576716 Z M8.229375,10.4801192 C8.01694444,10.4342844 7.90380208,10.4090753 7.84145833,10.4022001 C7.47201389,10.3563653 7.35887153,10.3632405 7.05177083,10.3426149 L6.86012153,9.90260112 L6.64307292,9.37550132 C5.92727431,9.65050991 5.84645833,11.0530537 6.95479167,11.2638937 C7.43276042,11.3555632 7.57592014,11.3463962 7.72138889,11.3624384 C7.99847222,11.392231 8.30095486,11.3624384 8.38177083,11.4816088 C8.52954861,11.6924487 8.32635417,11.7314083 8.229375,11.8414117 C8.19704861,11.9216226 8.19704861,11.9582904 8.19012153,12.0728773 C8.17164931,12.2562163 8.16703125,12.4395554 8.16472222,12.6114358 C9.35848958,12.4922654 9.71177083,10.7940873 8.229375,10.4801192 L8.229375,10.4801192 Z M6.92708333,9.65738513 L7.16953125,10.2005271 L8.03772569,10.2807379 L8.03772569,8.61464421 L7.04946181,8.53901684 L6.69618056,9.10049272 L6.92708333,9.65738513 L6.92708333,9.65738513 Z M8.34944444,7.5604446 C8.26862847,7.54211069 8.19243056,7.51231809 8.1046875,7.48940071 C7.90380208,7.43898247 7.67751736,7.40002292 7.43045139,7.37252206 C7.18800347,7.35418815 6.96402778,7.29001948 6.78161458,7.25335167 C5.46546875,6.98980176 5.64095486,6.42374241 5.72177083,6.16019251 C5.9434375,6.24040335 6.14894097,6.29082159 6.37060764,6.31832245 C6.62921875,6.35040678 6.90630208,6.35957374 7.14875,6.25186204 C6.93170139,6.06623124 6.40524306,5.98143692 6.24592014,5.83705741 C6.24592014,5.83705741 6.53223958,5.8003896 7.01251736,5.85539131 C7.25265625,5.88289217 7.55513889,5.74538788 7.55513889,5.74538788 C7.37734375,5.32141629 6.81394097,4.92723731 5.77026042,5.09911768 C4.33404514,5.33516672 3.89994792,7.98212444 6.85319444,8.362553 C7.02637153,8.38547038 7.36348958,8.40838776 7.55975694,8.42901341 C7.86685764,8.45651427 8.01001736,8.45651427 8.19012153,8.49089034 C8.31480903,8.51380772 8.64961806,8.99507276 8.19012153,9.04319927 C8.19012153,9.04319927 8.11392361,9.5542569 8.24553819,10.1065658 C9.62633681,10.1271915 10.2035938,8.0096253 8.34944444,7.56273634 L8.34944444,7.5604446 Z M9.12065972,5.31454108 C8.96826389,5.41537756 8.50645833,5.82789045 8.32635417,5.91497651 C8.23168403,5.96310301 8.25246528,5.06474161 8.25246528,5.06474161 C8.25939236,4.99140598 8.0215625,4.83785952 7.76756944,4.73473129 C7.73755208,4.71868913 7.69598958,4.67056262 7.62210069,4.63618655 C7.22956597,4.51014094 7.01482639,4.42763836 7.02637153,4.8011917 C7.02868056,4.8607769 7.00097222,4.93640426 7.07024306,5.05099118 C7.07024306,5.05099118 7.44892361,5.23433024 7.61517361,5.55059012 C7.71446181,5.73851266 7.74217014,5.85309958 7.74217014,5.85309958 C7.74217014,5.85309958 7.65904514,5.92185172 7.41659722,5.9562278 C7.60131944,6.01581299 7.75833333,6.09144036 7.90611111,6.11894122 L8.04465278,6.26790421 C7.93612847,6.2793629 7.64519097,6.24040335 7.32654514,6.13727512 L7.37503472,6.28165464 C7.24803819,6.38478286 7.1903125,6.41228372 6.97326389,6.4352011 C6.96171875,6.67812536 6.97788194,6.943967 7.01482639,7.16397387 L8.08390625,7.34043772 C8.16934028,7.29001948 8.26401042,7.10209694 8.27555556,7.09063825 C8.46720486,6.88896528 8.82972222,6.50853673 9.59401042,5.77288874 C9.88263889,5.49329667 9.42776042,5.10828463 9.12296875,5.31224934 L9.12065972,5.31454108 Z M6.63845486,5.42225278 C6.47682292,5.32370803 6.37522569,5.30537413 6.37522569,5.30537413 C6.37522569,5.30537413 6.70079861,5.19307895 6.98480903,5.34433368 C6.98480903,5.34433368 6.9409375,5.4772545 6.84626736,5.48871319 C6.75852431,5.50017188 6.70079861,5.45892059 6.64076389,5.42225278 L6.63845486,5.42225278 Z"/></g><g transform="translate(0 .092)"><polygon fill="#1355E9" points="19.698 14.129 14.214 14.129 14.217 19.574 5.486 19.574 5.486 14.129 0 14.129 0 5.445 5.486 5.445 5.486 0 14.214 0 14.214 5.445 19.698 5.445"/><path fill="#FFF" d="M4.96902778,7.51231809 L8.59881944,7.51231809 C8.95902778,7.51460983 9.24765625,7.41148161 9.41621528,7.2373095 C9.63095486,7.01959436 9.64711806,6.69187579 9.3515625,6.33207288 C8.82741319,5.69496963 9.27998264,5.08536725 9.83184028,5.1059929 C10.3813889,5.12891028 10.8362674,5.69496963 10.3144271,6.33207288 C10.0165625,6.69187579 10.0327257,7.01730262 10.2497743,7.2373095 C10.4160243,7.40918987 10.7069618,7.51460983 11.0671701,7.51460983 L14.7916319,7.51460983 C14.3990972,6.67125014 14.2767188,6.44665979 13.6024826,5.86914174 C12.7088889,5.10140942 11.0440799,4.39326229 9.87571181,4.39326229 C8.38177083,4.39326229 7.03098958,4.99598946 6.05196181,5.96768649 C5.60401042,6.41228372 5.236875,6.93480005 4.96671875,7.51231809 L4.96902778,7.51231809 Z M6.49298611,13.9475192 C6.83934028,13.301249 8.35175347,10.5030366 8.82510417,9.62530079 C9.34925347,8.64902028 8.77661458,8.24109087 8.00309028,8.1952561 C7.28036458,8.15400481 6.10506944,7.9614988 4.78661458,7.9317062 C4.58111111,8.50005729 4.46796875,9.12111837 4.46796875,9.76051335 C4.46796875,11.4518162 5.25765625,12.9620717 6.49298611,13.9475192 Z M12.8774479,14.2271113 C12.8774479,14.2271113 10.4460417,10.7367939 10.3121181,10.5099118 C10.1735764,10.2853214 10.058125,10.1455254 9.82953125,10.1455254 C9.6009375,10.1455254 9.48548611,10.2830297 9.34925347,10.5099118 C9.22918403,10.709293 7.27112847,13.5327146 6.81625,14.1881517 C7.68675347,14.7840037 8.73967014,15.1277644 9.87571181,15.1277644 C11.0117535,15.1277644 12.0207986,14.7954624 12.8774479,14.2271113 Z M15.2834549,9.76051335 C15.2834549,9.11424315 15.1703125,8.49547382 14.960191,7.92253925 C13.6071007,7.94545663 12.3971701,8.15171307 11.6605903,8.1952561 C10.8824479,8.24109087 10.3121181,8.65131202 10.8339583,9.62530079 C11.3627257,10.5992896 13.1198958,13.8650166 13.1891667,14.0025209 C14.46375,13.0193652 15.2834549,11.4861923 15.2834549,9.76280509 L15.2834549,9.76051335 Z"/><path fill="#1355E9" d="M8.75583333,6.81104618 L6.26439236,6.81104618 C6.81394097,6.08456514 7.61286458,5.53913143 8.45796875,5.35808411 C8.18319444,6.30915549 8.75583333,6.37790764 8.75583333,6.81104618 Z M13.3992882,6.81104618 C12.7712326,6.18769337 12.050816,5.53913143 11.2034028,5.35808411 C11.4781771,6.31144723 10.9055382,6.38019938 10.9055382,6.81104618 L13.3992882,6.81104618 Z M9.83184028,11.1676407 C9.67251736,11.1676407 7.88994792,13.9612696 7.88994792,13.9612696 C8.41409722,14.2316947 9.07909722,14.369199 9.83184028,14.369199 C10.5845833,14.369199 11.2495833,14.2339865 11.7760417,13.9612696 C11.7760417,13.9612696 9.99116319,11.1676407 9.83184028,11.1676407 Z M11.7298611,8.92173714 C11.5266667,8.94465452 11.3419444,8.96528017 11.5266667,9.30674917 C11.7067708,9.64592644 13.3761979,12.7764409 13.3761979,12.7764409 C14.1982118,11.7566174 14.7246701,10.4847026 14.4060243,8.71548069 C14.4060243,8.71548069 11.8914931,8.9194454 11.7298611,8.9194454 L11.7298611,8.92173714 Z M7.93381944,8.92173714 C7.77449653,8.92173714 5.25996528,8.71777243 5.25996528,8.71777243 C4.93901042,10.4869944 5.46546875,11.7589091 6.28748264,12.7787327 C6.28748264,12.7787327 7.95690972,9.64821817 8.14163194,9.30904091 C8.32173611,8.9675719 8.14163194,8.94465452 7.93381944,8.92402888 L7.93381944,8.92173714 Z"/></g></g><path fill="#1355E9" d="M12.0692882,15.9711241 L4.83279514,15.9711241 L3.38503472,19.6631145 L0,19.6631145 L6.64076389,3.22447576 L10.4391146,3.22447576 L17.1075868,19.6654062 L13.5147396,19.6654062 L12.0669792,15.9734158 L12.0692882,15.9711241 Z M10.9840451,13.1247851 L8.45104167,6.63687407 L5.91803819,13.1247851 L10.9817361,13.1247851 L10.9840451,13.1247851 Z M18.3937153,7.37939727 L21.5455382,7.37939727 L21.5455382,9.12341011 C22.192066,7.81482755 23.4320139,7.04480348 25.0598785,7.04480348 C27.9022917,7.04480348 29.7379688,9.02028188 29.7379688,12.2264237 L29.7379688,19.6654062 L26.5861458,19.6654062 L26.5861458,12.6893549 C26.5861458,11.0209694 25.6302083,9.96906153 24.0785417,9.96906153 C22.526875,9.96906153 21.5455382,11.0209694 21.5455382,12.6893549 L21.5455382,19.6654062 L18.3937153,19.6654062 L18.3937153,7.37939727 L18.3937153,7.37939727 Z M30.9017188,7.37939727 L33.0722049,7.37939727 L33.0722049,4.19846454 L36.2771354,4.19846454 L36.2771354,7.37939727 L39.5859722,7.37939727 L39.5859722,10.1478171 L36.2771354,10.1478171 L36.2771354,15.3798556 C36.2771354,16.5326 36.743559,17.0711585 37.6717882,17.0711585 C38.2652083,17.0711585 38.8355382,16.8144838 39.1449479,16.4569726 L40.5419097,18.7899622 C39.8699826,19.456858 38.7062326,19.9954165 37.1822743,19.9954165 C34.6769792,19.9954165 33.0745139,18.4576601 33.0745139,15.455483 L33.0745139,10.1455254 L30.9040278,10.1455254 L30.9040278,7.37710553 L30.9017188,7.37939727 Z M42.0774132,2.01902143 L45.2292361,2.01902143 L45.2292361,9.12341011 C45.8757639,7.81482755 47.1157118,7.04480348 48.7435764,7.04480348 C51.5859896,7.04480348 53.4216667,9.02028188 53.4216667,12.2264237 L53.4216667,19.6654062 L50.2698437,19.6654062 L50.2698437,12.6893549 C50.2698437,11.0209694 49.3139062,9.96906153 47.7622396,9.96906153 C46.2105729,9.96906153 45.2292361,11.0209694 45.2292361,12.6893549 L45.2292361,19.6654062 L42.0774132,19.6654062 L42.0774132,2.01902143 L42.0774132,2.01902143 Z M55.1303472,13.5097972 C55.1303472,9.94385241 57.7926563,7.04709522 61.3577951,7.04709522 C64.922934,7.04709522 67.6106424,9.7398877 67.6106424,13.2806234 C67.6106424,13.6908445 67.5852431,14.1789848 67.5321354,14.3829495 L58.3583681,14.3829495 C58.6931771,16.0765441 59.9862326,17.2544975 61.8727083,17.2544975 C63.1380556,17.2544975 64.1978993,16.715939 64.922934,15.9734158 L66.5507986,18.1276498 C65.5948611,19.1795577 63.837691,20 61.7711111,20 C57.9196528,20 55.1303472,17.1009511 55.1303472,13.5120889 L55.1303472,13.5097972 Z M58.439184,12.2012146 L64.3572222,12.2012146 C63.9693056,10.56033 62.8586632,9.68717772 61.4109028,9.68717772 C59.9631424,9.68717772 58.8271007,10.7138765 58.439184,12.2012146 L58.439184,12.2012146 Z M69.3724306,19.6654062 L69.3724306,7.37939727 L72.5242535,7.37939727 L72.5242535,9.25174745 C73.1707813,7.91795577 74.3853299,7.04480348 76.0131944,7.04480348 C77.8996701,7.04480348 79.3474306,7.96837401 80.0701563,9.60925862 C80.716684,8.1471296 81.9058333,7.04480348 83.8685069,7.04480348 C86.7363194,7.04480348 88.6227951,8.94236278 88.6227951,12.2264237 L88.6227951,19.6654062 L85.4432639,19.6654062 L85.4432639,12.6893549 C85.4432639,11.0209694 84.5127257,9.96906153 83.0141667,9.96906153 C81.5156076,9.96906153 80.5596701,11.0209694 80.5596701,12.6893549 L80.5596701,19.6654062 L77.4078472,19.6654062 L77.4078472,12.6893549 C77.4078472,11.0209694 76.477309,9.96906153 74.97875,9.96906153 C73.480191,9.96906153 72.5242535,11.0209694 72.5242535,12.6893549 L72.5242535,19.6654062 L69.3724306,19.6654062 L69.3724306,19.6654062 Z"/></g></g></svg>