<?xml version="1.0" encoding="UTF-8"?><svg id="Layer_1" xmlns="http://www.w3.org/2000/svg" viewBox="0 0 70 70"><defs><style>.cls-1{fill:#2b2e69;stroke-width:0px;}</style></defs><path id="Path_852" class="cls-1" d="M35,0C15.67,0,0,15.67,0,35s15.67,35,35,35,35-15.67,35-35S54.33,0,35,0ZM35,65.63c-16.92,0-30.63-13.71-30.63-30.63,0-16.92,13.71-30.63,30.63-30.63,16.92,0,30.63,13.71,30.63,30.63h0c0,16.92-13.71,30.63-30.63,30.63Z"/><path id="Path_853" class="cls-1" d="M45.42,24.13c-2.81-.1-5.51,1.09-7.32,3.25-1.32-2.1-3.63-3.25-6.61-3.25-2.64-.13-5.2.88-7.03,2.79v-2.33h-7.89v21.3h8.53v-9.1c0-3.71,1.15-5.59,3.43-5.59,1.84,0,2.22,1.79,2.22,3.29v11.4h8.53v-9.1c0-3.71,1.15-5.59,3.43-5.59,1.84,0,2.22,1.79,2.22,3.29v11.4h8.53v-12.43c0-4.85-.97-9.33-8.03-9.33h0Z"/><path id="Path_854" class="cls-1" d="M35,30.03c-2.74,0-4.97,2.22-4.97,4.97,0,2.74,2.22,4.97,4.97,4.97,2.74,0,4.96-2.22,4.97-4.96,0-2.74-2.22-4.97-4.97-4.97h0Z"/></svg>