<svg width="189" height="40" viewBox="0 0 189 40" fill="none" xmlns="http://www.w3.org/2000/svg">
<g id="magventure-logo-white 1" clip-path="url(#clip0_2273_615)">
<g id="Clip path group">
<mask id="mask0_2273_615" style="mask-type:luminance" maskUnits="userSpaceOnUse" x="0" y="0" width="189" height="40">
<g id="clip-path">
<path id="Rectangle 189117" d="M188.046 0H0V40H188.046V0Z" fill="white"/>
</g>
</mask>
<g mask="url(#mask0_2273_615)">
<g id="Group 22745">
<path id="Path 42232" d="M53.666 17.2326L50.893 32.9886H45.662L45.883 31.7596C44.6243 32.892 42.975 33.4911 41.283 33.4306C36.556 33.4306 34.507 29.2066 35.233 24.8906C35.894 20.7306 39.014 16.7906 43.773 16.7906C44.6269 16.724 45.4829 16.8913 46.2489 17.2745C47.015 17.6577 47.6622 18.2424 48.121 18.9656L48.437 17.2326H53.666ZM47.045 25.2046V25.1046C47.391 23.0566 46.352 21.6706 44.335 21.6706C43.3792 21.6644 42.4548 22.0116 41.7394 22.6454C41.024 23.2792 40.568 24.1551 40.459 25.1046C40.113 27.1536 41.152 28.5406 43.137 28.5406C44.0813 28.5473 44.9963 28.2132 45.7141 27.5997C46.432 26.9862 46.9045 26.1344 47.045 25.2006" fill="white"/>
<path id="Path 42233" d="M73.1418 17.2338L70.4628 32.3588C69.5178 37.7788 65.5158 39.7638 61.1628 39.7638C57.6968 39.7638 54.9238 38.4718 53.7888 35.9198L58.4258 33.4888C58.7344 34.0574 59.2041 34.5221 59.7759 34.8245C60.3477 35.127 60.9962 35.2537 61.6398 35.1888C62.4958 35.273 63.3515 35.0269 64.0319 34.5008C64.7123 33.9747 65.1659 33.2084 65.2998 32.3588L65.5208 31.1588C64.2911 32.2538 62.6908 32.8398 61.0448 32.7978C56.0978 32.7978 54.1128 28.6978 54.7448 24.5728C55.3448 20.6968 58.3678 16.7898 63.2208 16.7898C64.0998 16.7317 64.9779 16.9152 65.76 17.3204C66.5421 17.7257 67.1984 18.3372 67.6578 19.0888L67.9738 17.2298L73.1418 17.2338ZM66.5878 25.1108L66.6878 24.4798C66.7463 24.0924 66.7151 23.6968 66.5968 23.3233C66.4784 22.9498 66.2761 22.6085 66.0052 22.3254C65.7343 22.0424 65.4021 21.8252 65.0342 21.6906C64.6663 21.5559 64.2724 21.5074 63.8828 21.5488C62.95 21.5302 62.0417 21.8482 61.324 22.4444C60.6064 23.0407 60.1275 23.8754 59.9748 24.7958C59.8618 25.1993 59.8493 25.6244 59.9384 26.0339C60.0275 26.4434 60.2155 26.8248 60.486 27.1449C60.7565 27.465 61.1012 27.714 61.49 27.8701C61.8789 28.0263 62.3001 28.0849 62.7168 28.0408C63.5965 28.0517 64.4549 27.7695 65.1566 27.2389C65.8584 26.7082 66.3636 25.9592 66.5928 25.1098" fill="white"/>
<path id="Path 42234" d="M75.601 10.9307H81.462L82.88 26.4307L89.718 10.9307H96.083L85.339 32.9887H78.596L75.601 10.9307Z" fill="white"/>
<path id="Path 42235" d="M108.881 25.0789C108.778 25.7488 108.598 26.4045 108.344 27.0329H97.5359C97.8819 28.5769 99.2059 28.9549 100.561 28.9549C101.13 28.9803 101.698 28.8932 102.234 28.6986C102.769 28.504 103.261 28.2058 103.681 27.8209L107.021 30.8789C106.102 31.7377 105.021 32.4054 103.842 32.8433C102.663 33.2812 101.409 33.4806 100.152 33.4299C94.5099 33.4299 91.7679 29.4919 92.5259 24.7969C92.8814 22.5634 94.0226 20.5303 95.7441 19.0636C97.4657 17.5969 99.6543 16.7931 101.916 16.7969C106.675 16.7969 109.731 20.4519 108.881 25.0839M104.122 23.3839C104.121 23.0711 104.053 22.762 103.924 22.4774C103.794 22.1927 103.605 21.939 103.37 21.7332C103.134 21.5274 102.857 21.3741 102.558 21.2837C102.258 21.1933 101.943 21.1678 101.633 21.2089C100.907 21.1981 100.193 21.3977 99.5777 21.7837C98.9625 22.1696 98.4722 22.7254 98.1659 23.3839H104.122Z" fill="white"/>
<path id="Path 42236" d="M126.718 23.5662L125.049 32.9882H119.816L121.361 24.2282C121.644 22.4952 120.761 21.7382 119.407 21.7382C117.863 21.7382 116.697 22.6832 116.349 24.6072V24.5752L114.87 32.9882H109.639L112.411 17.2322H117.643L117.359 18.8382C117.936 18.1893 118.645 17.6711 119.438 17.3179C120.231 16.9647 121.091 16.7848 121.959 16.7902C125.204 16.7902 127.473 19.1222 126.717 23.5652" fill="white"/>
<path id="Path 42237" d="M135.448 26.8113C135.196 28.3233 136.268 28.4183 138.473 28.2603L137.655 32.9873C131.698 33.7753 129.335 31.7873 130.186 26.9373L131.006 22.2373H128.641L129.523 17.2273H131.887L132.387 14.3913L137.905 12.8213L137.117 17.2323H140.427L139.512 22.2423H136.235L135.448 26.8113Z" fill="white"/>
<path id="Path 42238" d="M158.233 17.2324L155.459 32.9884H150.229L150.512 31.3814C149.935 32.0307 149.227 32.5494 148.433 32.9027C147.64 33.2561 146.78 33.436 145.912 33.4304C142.667 33.4304 140.398 31.0984 141.154 26.6554L142.824 17.2324H148.055L146.511 25.9924C146.228 27.7254 147.111 28.4814 148.465 28.4814C150.009 28.4814 151.175 27.5364 151.521 25.6144V25.6464L153.003 17.2324H158.233Z" fill="white"/>
<path id="Path 42239" d="M171.28 16.9199L170.303 22.7199C168.287 22.4369 165.45 23.1929 164.883 26.4699L164.946 25.9699L163.717 32.9969H158.486L161.258 17.2399H166.495L165.958 20.2019C166.419 19.1879 167.172 18.3345 168.121 17.7508C169.07 17.167 170.171 16.8795 171.284 16.9249" fill="white"/>
<path id="Path 42240" d="M187.195 25.0789C187.093 25.7488 186.914 26.4046 186.66 27.0329H175.851C176.197 28.5769 177.521 28.9549 178.876 28.9549C179.445 28.9802 180.013 28.893 180.549 28.6985C181.084 28.5039 181.576 28.2057 181.996 27.8209L185.336 30.8789C184.417 31.7378 183.336 32.4056 182.157 32.8435C180.977 33.2814 179.723 33.4807 178.466 33.4299C172.825 33.4299 170.084 29.4919 170.84 24.7969C171.196 22.5635 172.338 20.5306 174.059 19.064C175.781 17.5974 177.969 16.7934 180.231 16.7969C184.99 16.7969 188.046 20.4519 187.195 25.0839M182.437 23.3839C182.436 23.0711 182.368 22.762 182.239 22.4774C182.109 22.1927 181.92 21.939 181.685 21.7332C181.449 21.5274 181.172 21.3741 180.873 21.2837C180.573 21.1933 180.258 21.1678 179.948 21.2089C179.222 21.198 178.508 21.3975 177.893 21.7835C177.277 22.1695 176.787 22.7253 176.481 23.3839H182.437Z" fill="white"/>
<path id="Path 42241" d="M28.7689 32.9885L30.8479 21.0765L23.9479 29.9635H23.3809L19.6309 20.9185L17.5189 32.9885H11.8789L15.7549 10.9295H21.3999L24.9929 20.4465L32.2709 10.9295H37.8269C35.8825 7.10424 32.7593 4.00578 28.9186 2.09182C25.078 0.177871 20.7236 -0.450081 16.4987 0.300727C12.2738 1.05154 8.40238 3.14129 5.45633 6.2613C2.51029 9.38131 0.645845 13.3661 0.138403 17.6271C-0.369038 21.8881 0.507434 26.1994 2.63835 29.924C4.76927 33.6486 8.04163 36.5891 11.9721 38.3111C15.9025 40.0332 20.2825 40.4454 24.4653 39.4869C28.648 38.5285 32.4115 36.2502 35.1999 32.9885H28.7689Z" fill="white"/>
</g>
</g>
</g>
</g>
<defs>
<clipPath id="clip0_2273_615">
<rect width="188.046" height="40" fill="white"/>
</clipPath>
</defs>
</svg>
