<svg xmlns="http://www.w3.org/2000/svg" xml:space="preserve" preserveAspectRatio="meet" viewBox="0.79 0.25 196.99 27.78"><g fill="none" fill-rule="evenodd"><path d="M4.39 1.17h3.88L13.084 15.7 17.969 1.17h3.823L25.304 22h-3.823L19.244 8.845 14.812 22h-3.498L6.938 8.845 4.658 22H.794L4.39 1.17Zm39.096 14.246H31.067c.18 1.095.659 1.965 1.438 2.612.778.647 1.772.97 2.98.97 1.445 0 2.686-.505 3.724-1.515l3.257 1.53c-.812 1.15-1.784 2.003-2.917 2.555-1.133.552-2.478.828-4.035.828-2.417 0-4.385-.762-5.905-2.286-1.52-1.525-2.28-3.434-2.28-5.728 0-2.35.758-4.302 2.273-5.855 1.515-1.553 3.415-2.33 5.7-2.33 2.425 0 4.398.777 5.918 2.33 1.52 1.553 2.28 3.603 2.28 6.152l-.014.737Zm-3.88-3.045c-.255-.859-.758-1.558-1.508-2.096s-1.621-.807-2.613-.807c-1.076 0-2.02.302-2.832.907-.51.377-.981 1.043-1.416 1.996h8.369ZM58 .646h3.852V22H58v-1.628c-.755.717-1.513 1.234-2.273 1.55a6.367 6.367 0 0 1-2.47.474c-1.993 0-3.715-.771-5.17-2.315-1.453-1.543-2.18-3.462-2.18-5.756 0-2.379.704-4.328 2.11-5.848 1.407-1.52 3.115-2.28 5.126-2.28.925 0 1.794.175 2.606.524.811.35 1.562.873 2.251 1.572V.646Zm-4.064 9.12c-1.199 0-2.195.422-2.988 1.267-.793.845-1.19 1.928-1.19 3.25 0 1.33.404 2.426 1.211 3.285.808.859 1.801 1.288 2.981 1.288 1.218 0 2.228-.422 3.03-1.267.803-.845 1.204-1.952 1.204-3.32 0-1.34-.401-2.427-1.204-3.257-.802-.831-1.817-1.246-3.044-1.246ZM67.275.25c.68 0 1.263.245 1.749.736.486.491.729 1.086.729 1.785 0 .689-.24 1.276-.722 1.762a2.346 2.346 0 0 1-1.728.73c-.689 0-1.277-.248-1.763-.744a2.482 2.482 0 0 1-.729-1.805c0-.68.24-1.26.722-1.742A2.374 2.374 0 0 1 67.275.25Zm-1.94 6.344h3.88V22h-3.88V6.594Zm22.458 3.115-3.214 1.77c-.605-.632-1.202-1.071-1.792-1.317-.59-.245-1.281-.368-2.074-.368-1.444 0-2.613.432-3.505 1.296-.892.863-1.338 1.97-1.338 3.32 0 1.312.43 2.384 1.289 3.215.859.83 1.987 1.246 3.384 1.246 1.728 0 3.073-.59 4.036-1.77l3.044 2.081c-1.652 2.143-3.984 3.214-6.995 3.214-2.71 0-4.831-.802-6.365-2.407-1.534-1.605-2.301-3.483-2.301-5.635 0-1.492.373-2.866 1.119-4.121.745-1.256 1.786-2.242 3.122-2.96 1.336-.717 2.83-1.076 4.482-1.076 1.529 0 2.902.305 4.12.914a7.82 7.82 0 0 1 2.988 2.598Zm14.868-3.115h3.852V22h-3.852v-1.628c-.755.717-1.513 1.234-2.273 1.55a6.367 6.367 0 0 1-2.47.474c-1.992 0-3.715-.771-5.169-2.315-1.454-1.543-2.18-3.462-2.18-5.756 0-2.379.703-4.328 2.11-5.848 1.406-1.52 3.114-2.28 5.125-2.28.925 0 1.794.175 2.606.524.812.35 1.562.873 2.251 1.572v-1.7Zm-4.064 3.172c-1.199 0-2.195.422-2.988 1.267-.793.845-1.19 1.928-1.19 3.25 0 1.33.404 2.426 1.212 3.285.807.859 1.8 1.288 2.98 1.288 1.218 0 2.228-.422 3.03-1.267.803-.845 1.204-1.952 1.204-3.32 0-1.34-.401-2.427-1.203-3.257-.803-.831-1.818-1.246-3.045-1.246Zm10.918-3.172h3.313v1.94c.359-.765.836-1.346 1.43-1.742a3.45 3.45 0 0 1 1.954-.595c.5 0 1.025.132 1.572.397l-1.203 3.327c-.454-.226-.826-.34-1.12-.34-.594 0-1.096.369-1.507 1.105-.41.736-.616 2.18-.616 4.333l.014.75V22h-3.837V6.594Zm25.615 8.822h-12.418c.18 1.095.658 1.965 1.437 2.612s1.773.97 2.98.97c1.445 0 2.687-.505 3.725-1.515l3.257 1.53c-.812 1.15-1.784 2.003-2.917 2.555-1.133.552-2.478.828-4.036.828-2.416 0-4.385-.762-5.905-2.286-1.52-1.525-2.28-3.434-2.28-5.728 0-2.35.758-4.302 2.273-5.855 1.515-1.553 3.415-2.33 5.7-2.33 2.426 0 4.399.777 5.919 2.33 1.52 1.553 2.28 3.603 2.28 6.152l-.015.737Zm-3.88-3.045c-.254-.859-.757-1.558-1.508-2.096-.75-.538-1.62-.807-2.612-.807-1.076 0-2.02.302-2.832.907-.51.377-.982 1.043-1.416 1.996h8.368Z" fill="#146A5D"/><path d="M140.39 18.885c.481 0 .892.17 1.232.51.34.34.51.755.51 1.246 0 .481-.17.894-.51 1.239-.34.344-.75.516-1.232.516s-.892-.172-1.232-.516a1.702 1.702 0 0 1-.51-1.24c0-.49.17-.906.51-1.245.34-.34.75-.51 1.232-.51Zm19.116-12.291h1.996V18.87c0 2.161-.188 3.743-.566 4.743-.52 1.416-1.42 2.507-2.705 3.271-1.283.765-2.827 1.147-4.63 1.147-1.322 0-2.509-.186-3.561-.56-1.053-.372-1.91-.872-2.57-1.5-.661-.628-1.27-1.546-1.827-2.754h2.152c.586 1.02 1.34 1.775 2.266 2.265.925.491 2.072.737 3.441.737 1.35 0 2.49-.253 3.42-.758.93-.505 1.593-1.14 1.99-1.904.396-.765.594-1.997.594-3.696v-.793a7.503 7.503 0 0 1-2.733 2.173 7.968 7.968 0 0 1-3.427.758 7.996 7.996 0 0 1-3.993-1.055c-1.246-.703-2.209-1.65-2.889-2.839-.68-1.19-1.02-2.497-1.02-3.922 0-1.426.355-2.755 1.063-3.986a7.802 7.802 0 0 1 2.938-2.925c1.25-.717 2.57-1.076 3.958-1.076 1.152 0 2.225.239 3.221.715.996.477 1.957 1.263 2.882 2.358V6.594Zm-5.848 1.515a6.267 6.267 0 0 0-3.13.814 5.9 5.9 0 0 0-2.265 2.252 6.16 6.16 0 0 0-.822 3.108c0 1.69.567 3.087 1.7 4.191 1.132 1.105 2.6 1.657 4.403 1.657 1.822 0 3.288-.548 4.397-1.643 1.11-1.095 1.664-2.534 1.664-4.319 0-1.16-.255-2.197-.765-3.108a5.572 5.572 0 0 0-2.166-2.16 6.026 6.026 0 0 0-3.016-.792Zm19.385-1.912c2.37 0 4.333.86 5.89 2.577 1.417 1.567 2.125 3.422 2.125 5.565 0 2.153-.749 4.034-2.245 5.643-1.496 1.61-3.42 2.414-5.77 2.414-2.36 0-4.288-.804-5.784-2.414-1.497-1.61-2.245-3.49-2.245-5.643 0-2.133.708-3.983 2.124-5.55 1.558-1.728 3.526-2.592 5.905-2.592Zm0 1.94c-1.643 0-3.054.61-4.234 1.827-1.18 1.218-1.77 2.69-1.77 4.418 0 1.114.27 2.152.807 3.115.538.963 1.265 1.706 2.18 2.23a5.967 5.967 0 0 0 3.017.786c1.095 0 2.1-.262 3.016-.786.916-.524 1.643-1.267 2.18-2.23a6.283 6.283 0 0 0 .808-3.115c0-1.728-.592-3.2-1.777-4.418s-2.594-1.827-4.227-1.827Zm10.238-1.543h2.11l5.154 11.215 5.112-11.215h2.124L190.729 22h-.354l-7.094-15.406Z" fill="#323A45"/></g></svg>