<svg xmlns="http://www.w3.org/2000/svg" xml:space="preserve" width="443.17334" height="172.22667">
  <path d="M73.332 116.551H42.2891l24.4961 43.699h.2812zM0 75.7305h19.082l15.6641 27.1675h40.4375l4.1289-27.1675h18.0859L79.7383 178.359h-18.793zm174.289 45.5705c0-14.949-8.543-34.6408-25.207-34.6408-11.105 0-16.801 6.4687-16.801 17.5308 0 16.68 7.688 34.93 25.77 34.93 11.539 0 16.238-8.051 16.238-17.82m28.621 57.058h-16.234l-8.113-38.519h-.29c-3.843 9.058-12.386 12.219-22.214 12.219-25.34 0-40.008-23.868-40.008-47.868 0-27.8824 20.215-30.4722 28.621-30.4722 8.683 0 16.66 2.7304 23.066 12.3593l.285-.289-2.277-10.0586h15.52zm22.067-102.6285h18.082l40.726 74.3205h-17.09l-28.472-54.1994h-.289l-6.121 54.1994h-16.805zm134.132 47.8715c.996 4.589 1.422 8.046 1.422 11.207 0 5.32-.851 17.25-27.621 17.25-17.515 0-31.183-6.18-34.746-24.579h15.383c2.273 9.2 9.535 11.641 18.363 11.641 6.695 0 12.395-1.859 12.395-8.91 0-5.609-2.711-9.34-8.547-9.781-5.27-.43-10.824-1-16.231-1.289-16.23-1.012-30.898-7.332-30.898-25.5902 0-13.082 10.82-19.832 22.922-19.832 8.969 0 18.367 3.0195 24.773 9.4921.289-5.7617 4.278-9.4921 9.832-9.4921 4.266 0 8.539 1 12.668 2.0117l2.563 11.789c-1.848-.1484-3.844-.8593-5.692-.8593-2.562 0-3.422 1.289-3.422 3.3007 0 2.0079.86 4.5977 1.422 7.3282zm-54.25-27.4614c0 12.3594 16.661 12.2184 25.77 12.9374 3.562.434 7.836 1.152 10.113 3.453l.285-.293c-2.136-14.0778-7.406-25.5778-23.211-25.5778-5.98 0-12.957 2.289-12.957 9.4804m71.051-20.4101h16.238l8.25 40.2495c1.286 6.04 4.278 12.071 7.981 15.95 3.984 4.031 8.969 7.191 15.375 7.191 11.816 0 11.254-8.191 11.254-10.641 0-2.011-.57-4.449-1.141-6.902l-9.402-45.8475h16.23l9.828 47.4295c.575 2.602.715 6.469.715 9.211 0 11.93-6.695 19.688-21.504 19.688-10.105 0-19.504-4.887-25.343-13.079l-.286.29 2.278 10.781h-15.235zm164.891 49.7385c.57 17.39-12.957 26.59-29.332 26.59-26.203 0-41.867-21.559-41.867-46.579 0-18.8198 10.679-31.7612 29.902-31.7612s32.184 8.621 37.449 27.6012h-16.234c-2.703-8.9216-8.969-14.6598-18.512-14.6598-12.098 0-16.371 8.3281-16.371 19.3988 0 14.23 7.973 33.062 24.207 33.062 8.828 0 14.809-4.461 14.52-13.652zm67.637-26.7385c-2.282-7.7617-8.973-12.0703-17.661-12.0703-12.246 0-17.511 7.039-17.511 17.2378 0 1.442 0 3.024.281 4.75h54.824c.422 2.442.852 5.614.852 9.204 0 14.519-5.125 34.207-31.325 34.207-26.343 0-40.867-23-40.867-45.848 0-20.1329 13.524-32.4922 32.184-32.4922 17.512 0 30.328 7.7617 35.453 25.0117zM575.117 119.43c3.274 11.5 10.254 19.691 22.352 19.691 9.687 0 15.523-6.32 15.523-15.09 0-1.441 0-2.883-.14-4.601zm127.867 1.871c0-14.949-8.546-34.6408-25.207-34.6408-11.101 0-16.8 6.4687-16.8 17.5308 0 16.68 7.691 34.93 25.769 34.93 11.535 0 16.238-8.051 16.238-17.82m28.618 57.058h-16.231l-8.117-38.519h-.285c-3.844 9.058-12.391 12.219-22.211 12.219-25.352 0-40.016-23.868-40.016-47.868 0-27.8824 20.223-30.4722 28.621-30.4722 8.688 0 16.66 2.7304 23.067 12.3593l.289-.289-2.281-10.0586h15.519zm63.503-15.519h33.465l-17.941-87.1095h17.801l17.941 87.1095h32.317l3.277 15.519h-83.727zm83.157-87.1095h16.234l8.262 40.2495c1.277 6.04 4.265 12.071 7.969 15.95 3.984 4.031 8.968 7.191 15.378 7.191 11.821 0 11.25-8.191 11.25-10.641 0-2.011-.57-4.449-1.14-6.902l-9.399-45.8475h16.235l9.824 47.4295c.57 2.602.711 6.469.711 9.211 0 11.93-6.691 19.688-21.504 19.688-9.254 0-18.652-5.028-24.199-12.508h-.289l7.976 38.808h-16.234zm144.808 23c-2.28-7.7617-8.97-12.0703-17.65-12.0703-12.248 0-17.518 7.039-17.518 17.2378 0 1.442 0 3.024.286 4.75h54.822c.42 2.442.85 5.614.85 9.204 0 14.519-5.13 34.207-31.33 34.207-26.339 0-40.862-23-40.862-45.848 0-20.1329 13.527-32.4922 32.182-32.4922 17.51 0 30.33 7.7617 35.45 25.0117zM989.75 119.43c3.281 11.5 10.25 19.691 22.36 19.691 9.68 0 15.52-6.32 15.52-15.09 0-1.441 0-2.883-.15-4.601zm66.5-43.6995h16.23l6.83 32.9175c3.14 14.954 10.26 27.883 27.06 27.883 1.85 0 3.85-.293 5.7-.57l3.41 15.668c-2.56.43-5.26.43-7.83.43-9.97 0-19.08-8.629-23.49-16.821l-.29.293 2.99 14.52h-15.38zm132.14 47.8715c1 4.589 1.42 8.046 1.42 11.207 0 5.32-.85 17.25-27.62 17.25-17.52 0-31.19-6.18-34.74-24.579h15.37c2.28 9.2 9.54 11.641 18.37 11.641 6.69 0 12.39-1.859 12.39-8.91 0-5.609-2.71-9.34-8.55-9.781-5.27-.43-10.81-1-16.23-1.289-16.23-1.012-30.9-7.332-30.9-25.5902 0-13.082 10.83-19.832 22.93-19.832 8.97 0 18.36 3.0195 24.77 9.4921.29-5.7617 4.28-9.4921 9.83-9.4921 4.27 0 8.54 1 12.67 2.0117l2.57 11.789c-1.85-.1484-3.85-.8593-5.7-.8593-2.56 0-3.42 1.289-3.42 3.3007 0 2.0079.86 4.5977 1.43 7.3282zm-54.26-27.4614c0 12.3594 16.66 12.2184 25.78 12.9374 3.56.434 7.83 1.152 10.11 3.453l.28-.293c-2.14-14.0778-7.4-25.5778-23.21-25.5778-5.98 0-12.96 2.289-12.96 9.4804m65.65-47.8711h16.23l7.98 38.961h.28c4.55-10.4922 13.38-13.5117 24.06-13.5117 25.49 0 37.74 24.8593 37.74 47.5822 0 17.679-9.54 30.758-27.91 30.758-9.11 0-18.08-4.321-23.21-11.789l-.29.289 2.14 9.492h-16.09zm28.62 57.5005c0 15.531 7.69 33.351 25.2 33.351 11.25 0 16.23-8.621 16.23-19.402 0-15.528-7.69-33.0588-25.2-33.0588-11.53 0-16.23 8.4804-16.23 19.1098m91.13-27.5903-6.41-11.9414c-1.99-4.7383-5.7-6.3164-10.54-6.3164-1.99 0-4.27.5781-6.26 1.1484l-2.99-13.6484c3.27-.7305 6.55-1.1602 9.82-1.1602 18.23 0 23.78 13.0781 31.47 27.168l42.15 76.6213h-17.38l-27.76-54.3401h-.29l-7.69 54.3401h-17.08zm113.63-2.4492h16.23l12.81 62.0975h14.24l2.42 12.223h-14.24c2.28 8.91 2 15.379 12.96 15.379 2.28 0 4.27-.149 6.27-.578l2.7 12.507c-3.84.43-7.69 1-12.1 1-19.94 0-22.5-11.211-26.06-28.308h-12.1l-2.42-12.223h12.1zm84.43-2.0117c26.2 0 42.01 20.4101 42.01 46.4292 0 20.704-11.96 31.911-32.18 31.911-25.35 0-42.01-21.418-42.01-45.848 0-20.711 11.96-32.4922 32.18-32.4922m8.83 65.4022c11.82 0 16.94-8.191 16.94-19.121 0-15.09-8.11-33.3398-24.77-33.3398-11.82 0-16.94 8.1914-16.94 19.1098 0 14.808 8.11 33.351 24.77 33.351m48.55-63.3905h16.23l6.84 32.9175c3.13 14.954 10.25 27.883 27.05 27.883 1.85 0 3.85-.293 5.7-.57l3.42 15.668c-2.56.43-5.27.43-7.84.43-9.96 0-19.07-8.629-23.49-16.821l-.28.293 2.99 14.52h-15.38zm111.63 0h17.09l15.53 82.2185h.28l12.81-82.2185h13.96l45.99 82.2185h.28l-17.65-82.2185h17.08l20.94 102.6285h-25.2l-44.15-78.187h-.28l-11.11 78.187h-24.49zm187.39 23c-2.28-7.7617-8.97-12.0703-17.65-12.0703-12.25 0-17.52 7.039-17.52 17.2378 0 1.442 0 3.024.29 4.75h54.82c.42 2.442.85 5.614.85 9.204 0 14.519-5.13 34.207-31.33 34.207-26.34 0-40.86-23-40.86-45.848 0-20.1329 13.52-32.4922 32.18-32.4922 17.51 0 30.33 7.7617 35.45 25.0117zm-33.32 20.6995c3.27 11.5 10.25 19.691 22.36 19.691 9.68 0 15.52-6.32 15.52-15.09 0-1.441 0-2.883-.15-4.601zm66.5-43.6995h16.23l8.26 40.2495c1.28 6.04 4.27 12.071 7.97 15.95 3.99 4.031 8.97 7.191 15.38 7.191 11.82 0 11.25-8.191 11.25-10.641 0-2.011-.57-4.449-1.14-6.902l-9.4-45.8475h16.24l9.82 47.4295c.57 2.602.71 6.469.71 9.211 0 11.93-6.69 19.688-21.5 19.688-10.11 0-19.51-4.887-25.34-13.079l-.29.29 2.28 10.781h-15.24zm110.06 74.3205h-12.81l-2.56-12.223h12.81l-8.4-40.6796c-.28-1.2968-.99-5.457-.99-8.3398 0-6.8984 2.98-13.7969 14.66-13.7969 4.13 0 9.26.5781 13.38 1.5781l2.71 12.0821c-3.13-.7227-6.26-.7227-8.69-.7227-4.83 0-5.83 2.3008-5.83 5.461 0 1.7304.71 4.8906 1.42 8.0508l7.55 36.367h14.66l2.57 12.223h-14.67l4.56 22.269h-15.81zm107.08-26.449c1 4.589 1.43 8.046 1.43 11.207 0 5.32-.86 17.25-27.63 17.25-17.51 0-31.18-6.18-34.74-24.579h15.37c2.29 9.2 9.55 11.641 18.37 11.641 6.7 0 12.39-1.859 12.39-8.91 0-5.609-2.7-9.34-8.54-9.781-5.27-.43-10.82-1-16.23-1.289-16.24-1.012-30.9-7.332-30.9-25.5902 0-13.082 10.82-19.832 22.92-19.832 8.97 0 18.37 3.0195 24.78 9.4921.28-5.7617 4.27-9.4921 9.82-9.4921 4.28 0 8.55 1 12.68 2.0117l2.56 11.789c-1.85-.1484-3.85-.8593-5.7-.8593-2.56 0-3.41 1.289-3.41 3.3007 0 2.0079.85 4.5977 1.42 7.3282zm-54.25-27.4614c0 12.3594 16.66 12.2184 25.77 12.9374 3.57.434 7.83 1.152 10.11 3.453l.29-.293c-2.14-14.0778-7.4-25.5778-23.21-25.5778-5.98 0-12.96 2.289-12.96 9.4804m71.05-20.4101h16.23l21.08 102.6285h-16.23zm91.84 0h17.8l9.54 46.2895h47.56l-9.54-46.2895h17.8l21.08 102.6285h-17.8l-8.4-40.82h-47.56l8.4 40.82h-17.8zm165.03 23c-2.27-7.7617-8.97-12.0703-17.65-12.0703-12.25 0-17.52 7.039-17.52 17.2378 0 1.442 0 3.024.29 4.75h54.82c.43 2.442.85 5.614.85 9.204 0 14.519-5.12 34.207-31.32 34.207-26.34 0-40.87-23-40.87-45.848 0-20.1329 13.53-32.4922 32.18-32.4922 17.52 0 30.33 7.7617 35.46 25.0117zm-33.32 20.6995c3.28 11.5 10.26 19.691 22.36 19.691 9.68 0 15.52-6.32 15.52-15.09 0-1.441 0-2.883-.14-4.601zm137.41 4.172c1 4.589 1.42 8.046 1.42 11.207 0 5.32-.85 17.25-27.62 17.25-17.51 0-31.18-6.18-34.74-24.579h15.38c2.27 9.2 9.54 11.641 18.37 11.641 6.69 0 12.38-1.859 12.38-8.91 0-5.609-2.7-9.34-8.54-9.781-5.27-.43-10.82-1-16.23-1.289-16.23-1.012-30.9-7.332-30.9-25.5902 0-13.082 10.82-19.832 22.92-19.832 8.98 0 18.37 3.0195 24.78 9.4921.28-5.7617 4.27-9.4921 9.82-9.4921 4.28 0 8.55 1 12.68 2.0117l2.56 11.789c-1.85-.1484-3.84-.8593-5.69-.8593-2.57 0-3.43 1.289-3.43 3.3007 0 2.0079.86 4.5977 1.43 7.3282zm-54.25-27.4614c0 12.3594 16.66 12.2184 25.78 12.9374 3.55.434 7.83 1.152 10.1 3.453l.29-.293c-2.14-14.0778-7.41-25.5778-23.21-25.5778-5.98 0-12.96 2.289-12.96 9.4804m71.05-20.4101h16.24l21.07 102.6285h-16.23zm62.65 74.3205h-12.81l-2.56-12.223h12.81l-8.4-40.6796c-.28-1.2968-.99-5.457-.99-8.3398 0-6.8984 2.98-13.7969 14.66-13.7969 4.13 0 9.26.5781 13.39 1.5781l2.7 12.0821c-3.13-.7227-6.26-.7227-8.69-.7227-4.83 0-5.83 2.3008-5.83 5.461 0 1.7304.71 4.8906 1.42 8.0508l7.55 36.367h14.66l2.57 12.223h-14.67l4.56 22.269h-15.81zm36.17-74.3205h16.23l8.26 40.2495c1.28 6.04 4.28 12.071 7.98 15.95 3.98 4.031 8.97 7.191 15.38 7.191 11.81 0 11.24-8.191 11.24-10.641 0-2.011-.57-4.449-1.14-6.902l-9.39-45.8475h16.23l9.82 47.4295c.57 2.602.72 6.469.72 9.211 0 11.93-6.7 19.688-21.5 19.688-9.26 0-18.66-5.028-24.21-12.508h-.28l7.97 38.808h-16.23l-21.08-102.6285M7.83203 297.766H95.1211L155.688 595.25h1.183l116.383-297.484h93.226l89.661 423.961h-85.504L310.07 420.09h-1.191L193.691 721.727H97.4922ZM757.777 430.777c2.973 14.844 4.754 31.469 4.754 48.09 0 89.074-57.597 134.196-143.101 134.196-104.508 0-169.231-91.442-169.231-189.411 0-87.289 54.633-134.191 136.574-134.191 88.473 0 132.411 36.809 159.133 105.687H661.59c-12.473-19.593-29.098-42.156-62.945-42.156-45.719 0-67.688 24.344-67.688 59.973 0 4.746 0 10.094.59 17.812zm-217.32 53.438c12.469 34.441 36.219 65.312 83.719 65.312 49.285 0 57.004-33.839 57.004-65.312zm586.653 120.539h-84.32l-34.44-163.289c-8.905-42.75-35.034-85.512-86.096-85.512-19.598 0-40.379 13.067-40.379 31.473 0 8.316 2.969 28.5 5.344 37.41l37.406 179.918h-84.312l-38.004-179.918c-2.375-10.688-8.911-40.375-8.911-52.848 0-53.437 31.473-82.527 89.668-82.527 43.938 0 80.157 17.215 107.469 51.059h1.188l-9.496-42.754h80.753zm1.77-306.988h84.32l28.5 135.98c11.29 52.25 34.44 100.942 99.17 100.942 11.87 0 23.75-2.973 35.62-5.344l17.23 81.941c-8.91 1.188-17.23 1.778-26.13 1.778-45.13 0-86.69-22.559-105.7-64.719l-1.18 1.183 12.46 55.227h-80.15zm238.11 124.101c0-87.883 55.22-132.406 140.72-132.406 111.64 0 178.74 85.5 178.74 193.57 0 88.473-58.79 130.032-143.11 130.032-109.26 0-176.35-87.282-176.35-191.196m84.31 0c0 51.66 27.32 127.66 89.07 127.66 43.94 0 61.76-26.714 61.76-67.687 0-51.656-27.32-128.848-90.26-128.848-39.78 0-60.57 32.656-60.57 68.875M2917.33 914.574c34.43 0 62.34-27.906 62.34-62.332 0-31.226-22.97-57.09-52.94-61.625 72.8-35.707 189.72-51.211 397.07-80.851-231.66 0-524.25-61.899-563.77 248.543l-42.43 333.411c66.58-244.51 83.02-370.365 137.5-443.079-.07 1.191-.1 2.394-.1 3.601 0 34.426 27.9 62.332 62.33 62.332M2458.56 940.828c34.43 0 62.34-27.906 62.34-62.34 0-6.961-1.15-13.66-3.25-19.914 54.2 54.965 88.35 158.996 179.49 350.256l-87.33-276.978c-81.31-257.895-320.59-160.286-517.57-124.676 186.93-6.895 289.4-11.778 356.7 9.722-29.85 4.625-52.71 30.442-52.71 61.59 0 34.434 27.91 62.34 62.33 62.34m567.15-460.32c34.43 0 62.34-27.91 62.34-62.332 0-34.43-27.91-62.332-62.34-62.332-20.22 0-38.18 9.625-49.58 24.547-6.28-76.368 23.59-182.84 56.18-380.391l-88.43 283.141c-82.34 263.644 175.21 321.453 361.11 406.558-154.65-99.41-242.68-154.734-288.19-209.832 2.91.418 5.89.641 8.91.641M1714.71 440.273c0-102.128 59.38-150.824 176.35-150.824 80.76 0 172.8 38.598 172.8 140.137 0 76.008-46.91 101.539-113.42 118.762-29.09 7.125-100.94 17.812-100.94 59.968 0 39.192 38.59 52.848 74.22 52.848 43.35 0 77.79-16.629 76.01-64.133h88.47c0 97.977-72.44 136.571-159.13 136.571-81.94 0-168.04-37.403-168.04-131.817 0-73.039 53.44-97.383 106.87-114.012 52.85-16.027 107.48-24.339 107.48-65.906 0-42.156-43.34-59.972-80.75-59.972-53.44 0-94.42 18.41-91.45 78.378zm559.93 259.489h-84.31l-19-93.227h-54.03l-13.07-56.41h55.22l-34.44-164.477c-2.37-10.687-4.15-21.378-4.15-29.097-1.19-49.879 40.97-62.344 80.16-62.344 17.81 0 35.62 1.184 52.84 2.965l14.25 65.316c-10.09-1.183-20.18-1.785-30.28-1.785-12.47 0-28.5.602-28.5 22.57 0 2.375 1.19 7.715 2.37 14.25l31.47 152.602h59.98l13.06 56.41h-60.56zm235.14-282.649c-9.5-33.25-26.72-69.468-78.97-69.468-24.35 0-46.32 11.281-46.32 34.441 0 38.59 30.28 46.316 62.35 49.879 24.34 1.777 49.88 2.371 71.26 14.844zm-90.85 96.2c5.35 30.871 32.07 45.121 62.35 45.121 21.37 0 53.44-7.125 53.44-37.403 0-39.191-37.41-35.035-116.98-44.539-73.03-8.902-117.56-45.719-117.56-104.5 0-42.754 32.65-80.754 99.75-80.754 34.44 0 70.66 12.465 93.82 38.594v-30.285h84.32c-1.79 5.348-2.97 12.473-2.97 17.812 0 11.879 1.18 30.879 4.15 41.567l27.32 123.508c3.56 19 6.53 38.597 6.53 51.66 1.19 68.879-73.03 80.75-127.67 80.75-69.46 0-134.78-24.34-145.47-101.531zm213.17-213.766h84.31l28.5 135.98c11.29 52.246 34.45 100.938 99.17 100.938 11.87 0 23.75-2.969 35.62-5.34l17.22 81.941c-8.91 1.188-17.22 1.778-26.13 1.778-45.12 0-86.69-22.563-105.69-64.719l-1.19 1.184 12.48 55.226h-80.17l-64.12-306.988" style="fill:#502885;fill-opacity:1;fill-rule:nonzero;stroke:none" transform="matrix(.13333 0 0 -.13333 0 172.22667)"/>
  <path d="M2948.77 652.965h1.4c1.97 0 3.39.418 4.25 1.277.85.852 1.27 2.266 1.27 4.25 0 1.942-.42 3.321-1.25 4.129-.84.813-2.3 1.223-4.37 1.223h-1.3zm17.31 5.699c0-5.094-2.14-8.582-6.43-10.465l10.65-17.988h-11.41l-8.01 15.195h-2.11v-15.195h-10.29v41.18h11.86c5.42 0 9.41-1.043 11.94-3.145 2.54-2.098 3.8-5.293 3.8-9.582zm-41.14-7.82c0-4.91 1.23-9.492 3.69-13.731 2.46-4.246 5.81-7.586 10.07-10.027 4.25-2.441 8.81-3.664 13.66-3.664 4.93 0 9.5 1.23 13.75 3.691 4.23 2.453 7.57 5.813 10.01 10.071 2.45 4.246 3.67 8.808 3.67 13.66 0 4.914-1.23 9.492-3.68 13.742-2.47 4.238-5.83 7.578-10.07 10.019-4.26 2.442-8.82 3.661-13.68 3.661-4.91 0-9.49-1.231-13.73-3.68-4.23-2.461-7.58-5.82-10.02-10.07-2.45-4.258-3.67-8.817-3.67-13.672zm-6.38 0c0 5.996 1.5 11.613 4.5 16.867 3 5.242 7.12 9.375 12.36 12.402 5.25 3.028 10.89 4.539 16.94 4.539 6 0 11.62-1.492 16.87-4.492 5.24-2.996 9.38-7.121 12.4-12.363 3.03-5.242 4.54-10.899 4.54-16.953 0-5.899-1.45-11.446-4.35-16.629-2.91-5.188-6.99-9.336-12.24-12.453-5.24-3.125-10.97-4.676-17.22-4.676-6.2 0-11.92 1.551-17.16 4.648-5.25 3.106-9.34 7.246-12.26 12.43-2.92 5.188-4.38 10.754-4.38 16.68" style="fill:#502885;fill-opacity:1;fill-rule:nonzero;stroke:none" transform="matrix(.13333 0 0 -.13333 0 172.22667)"/>
</svg>
