<?xml version="1.0" encoding="utf-8"?>
<!-- Generator: Adobe Illustrator 22.1.0, SVG Export Plug-In . SVG Version: 6.00 Build 0)  -->
<svg version="1.1" id="Ebene_1" xmlns="http://www.w3.org/2000/svg" xmlns:xlink="http://www.w3.org/1999/xlink" x="0px" y="0px"
	 width="200px" height="38px" viewBox="0 0 200 38" style="enable-background:new 0 0 200 38;" xml:space="preserve">
<style type="text/css">
	.st0{fill:#F39200;}
</style>
<g>
	<path id="Nexstim" class="st0" d="M95.3,9.7h-7L80.8,20l-7-10.4h-7.4L76.3,23L65.6,37.5h7.1l8-11.5l8,11.5h7.4L85.4,22.9L95.3,9.7z
		 M66,20.7c0-1.6-0.3-3.2-0.8-4.6c-0.5-1.4-1.3-2.7-2.4-3.7c-1.1-1-2.5-1.8-4.1-2.4c-1.6-0.6-3.5-0.9-5.7-0.9c-2.2,0-4.2,0.4-6,1.1
		c-1.8,0.7-3.4,1.7-4.8,2.9c-1.4,1.3-2.5,2.8-3.2,4.6c-0.8,1.8-1.1,3.8-1.1,5.9c0,2.2,0.3,4.2,1,5.9c0.7,1.8,1.7,3.3,3,4.6
		c1.3,1.3,3,2.2,4.9,2.9c1.9,0.7,4.1,1,6.6,1c1.2,0,2.1,0,3.1-0.1c2.4-0.2,4.7-0.9,5.7-1.3c1.5-0.6,2.8-1.4,2.8-1.4l0-5.9l-2.4,1.4
		c-1.3,0.7-2.7,1.3-4,1.6c-1.4,0.3-3,0.4-4.8,0.4c-1.2,0-2.4-0.2-3.5-0.5c-1.1-0.3-2.1-0.8-3-1.4c-0.8-0.6-1.5-1.5-2-2.4
		c-0.4-0.8-0.7-1.8-0.9-2.9h21.1l0.1-0.5c0.2-0.7,0.3-1.4,0.4-2.1C66,22.2,66,21.5,66,20.7z M44.2,20.3c0.1-0.8,0.4-1.6,0.8-2.2
		c0.5-0.8,1.1-1.5,1.9-2.1c0.7-0.6,1.6-1,2.6-1.3c1-0.3,2-0.4,3-0.4c2.7,0,4.6,0.5,5.8,1.5c1,0.9,1.6,2.4,1.7,4.5H44.2z M197.2,12.3
		c-1.9-2.1-4.7-3.2-8.6-3.2c-2.1,0-4.1,0.4-5.9,1.3c-1.5,0.7-2.9,1.8-4.1,3c-1.8-2.9-5-4.3-9.4-4.3c-2,0-3.8,0.4-5.4,1.1
		c-1.2,0.6-2.4,1.5-3.4,2.6l-0.2-3.2h-5.5v27.8h6.2l-0.1-18.5c1.2-1.5,2.4-2.7,3.7-3.4c1.3-0.7,2.9-1.1,4.9-1.1c1,0,1.9,0.2,2.5,0.5
		c0.6,0.3,1.1,0.7,1.5,1.3c0.4,0.6,0.7,1.3,0.8,2.1c0.2,0.9,0.3,1.9,0.3,3v16.1h6.2v-16c0-0.6,0-1.1-0.1-1.7c0-0.4-0.1-0.8-0.1-1.2
		c1.1-1.3,2.3-2.3,3.5-3c1.3-0.7,2.9-1.1,4.8-1.1c1,0,1.9,0.2,2.5,0.5c0.6,0.3,1.1,0.7,1.5,1.3c0.4,0.6,0.7,1.3,0.8,2.1
		c0.2,0.9,0.3,1.9,0.3,3v16.1h6.2V21.4C200,17.5,199.1,14.5,197.2,12.3z M28.5,21.6l0.1,7.2L6.2,2.7H0v34.8h6V19.9l-0.3-8.6
		l22.5,26.2h6.4V2.7h-6.1V21.6z M136.5,32.4c-0.9,0.3-1.9,0.4-3,0.4c-1.3,0-2.3-0.4-3.1-1.1c-0.8-0.7-1.2-2-1.2-3.8V14.6l11.5,0.1
		l0-5h-11.5v-8l-6,2.5l-0.1,5.5c-0.2,0-1.8-0.1-12.2-0.4c-0.8,0-1.7-0.1-2.7-0.1c-2,0-3.7,0.2-5.2,0.6c-1.5,0.4-2.8,1-3.8,1.7
		c-1,0.7-1.8,1.6-2.3,2.7c-0.5,1-0.8,2.1-0.8,3.3c0,2.6,1,4.6,2.8,5.9c1.8,1.2,4.5,2,8,2.4c1.4,0.1,2.5,0.3,3.4,0.5
		c0.9,0.2,1.5,0.4,2.1,0.7c0.4,0.2,0.8,0.5,1,0.9c0.2,0.4,0.3,0.8,0.3,1.4c0,2.4-2.6,3.6-7.6,3.6c-2.8,0-5.4-0.6-8-1.8l-1.6-0.7v6
		c1.6,0.7,3,1,4.6,1.3c1.5,0.3,3.3,0.4,5.2,0.4c4,0,7.2-0.7,9.6-2.1c2.5-1.4,3.7-3.7,3.7-6.7c0-2.9-1-5.1-3-6.5
		c-1.9-1.3-4.6-2.2-8-2.5c-2.3-0.2-4-0.6-5.1-1c-0.9-0.4-1.4-1.1-1.4-2.1c0-0.8,0.4-1.5,1.3-2c0.9-0.6,2.5-0.9,4.7-0.9
		c7.2,0.2,15,0.3,15,0.3L123,27.9c0,3.3,0.9,5.8,2.6,7.5c1.7,1.7,4.2,2.6,7.4,2.6c1.8,0,3.3-0.3,4.6-0.7c1.6-0.5,2.4-1,3.4-1.7v-5.7
		l-1.8,1.1C138.3,31.6,137.4,32.1,136.5,32.4z M147.1,0c-2.1,0-3.7,1.7-3.7,3.7s1.7,3.8,3.7,3.8c2.1,0,3.8-1.7,3.8-3.8
		S149.2,0,147.1,0z M144,37.5h6.2V9.7H144V37.5z"/>
</g>
</svg>
