<svg xmlns="http://www.w3.org/2000/svg" viewBox="0 0 708 205.23"><defs><style>.cls-1{fill:#ff612b;}</style></defs><g id="Layer_2" data-name="Layer 2"><g id="Layer_1-2" data-name="Layer 1"><path class="cls-1" d="M526.29,158.63V38.54h38.09l.23,14.34c7.61-11,18.82-16.14,31.81-16.14,16.36,0,28,7.62,34.28,19.5,7.62-13,22-19.5,36.75-19.5,26.21,0,40.55,19.72,40.55,44.59v77.3H669.24V87.16c0-11.65-7.39-18.6-16.36-18.6s-16.35,7-16.35,18.6v71.47H597.77V87.16c0-11.65-7.4-18.6-16.36-18.6s-16.36,7-16.36,18.6v71.47Zm-13-45.71c0,30.92-24.65,48.4-56,48.4s-56-17.48-56-48.4V38.54h39V111.8c0,10.53,6.94,17.25,17,17.25s17-6.72,17-17.25V38.54h39ZM390.74,69.46V38.54h-32V7.84H319.94V115.61c0,29.8,17.7,44.81,46.16,44.81,8.29,0,17-.89,24.64-4v-30.7A48.18,48.18,0,0,1,376,128.16c-10.31,0-17.26-4.71-17.26-15.69v-43ZM270.88,98.58c0,17.26-12.55,30-28,30-15.68,0-28.23-12.77-28.23-30,0-17,12.55-29.8,28.23-29.8C258.33,68.78,270.88,81.56,270.88,98.58ZM214.64,205.23V146.08a54.08,54.08,0,0,0,37.19,14.57c32.49,0,58-27.56,58-62.07,0-34.28-25.54-61.84-58-61.84a54,54,0,0,0-38.31,15.69l-.22-13.89H175.66V205.23Zm-91.86-125c0,24.65-18.15,43-40.78,43s-40.77-18.37-40.77-43,18.14-43,40.77-43S122.78,55.57,122.78,80.21ZM82,0C36.07,0,0,35.62,0,80.21s36.07,80.21,82,80.21,82-35.62,82-80.21S127.93,0,82,0Z"/></g></g></svg>