<?xml version="1.0" encoding="utf-8"?>
<!-- Generator: Adobe Illustrator 28.0.0, SVG Export Plug-In . SVG Version: 6.00 Build 0)  -->
<svg version="1.1" id="Layer_1" xmlns="http://www.w3.org/2000/svg" xmlns:xlink="http://www.w3.org/1999/xlink" x="0px" y="0px"
	 width="276px" height="39.3525px" viewBox="0 0 276 39.3525" style="enable-background:new 0 0 276 39.3525;" xml:space="preserve"
	>
<style type="text/css">
	.st0{fill:#007CBF;}
	.st1{fill:#FFFFFF;}
</style>
<g>
	<g>
		<path d="M87.4914,2.2975h4.3339c1.9745,0,3.4077,0.2812,4.2997,0.8428c0.892,0.5623,1.3386,1.4555,1.3386,2.6813
			c0,0.8316-0.1957,1.5147-0.586,2.0481c-0.3908,0.5334-0.9098,0.8539-1.5574,0.9617v0.0952
			c0.8829,0.1971,1.5193,0.5649,1.9094,1.1048c0.3908,0.54,0.5858,1.2572,0.5858,2.1532c0,1.2698-0.4584,2.2602-1.3762,2.9716
			s-2.1637,1.0668-3.7381,1.0668h-5.2102V2.2975H87.4914z M90.4439,7.8118h1.7143c0.8,0,1.3794-0.1235,1.738-0.3711
			c0.3588-0.2477,0.5381-0.6575,0.5381-1.229c0-0.5334-0.1951-0.9157-0.5853-1.1475c-0.3908-0.2319-1.0082-0.3475-1.853-0.3475
			h-1.5521V7.8118z M90.4439,10.1555v3.6291h1.9239c0.8125,0,1.4129-0.1556,1.7998-0.4664
			c0.3876-0.3113,0.5813-0.7876,0.5813-1.4293c0-1.1561-0.8257-1.7334-2.4763-1.7334H90.4439z"/>
		<path d="M102.4932,16.2228h-2.9046V1.4023h2.9046V16.2228z"/>
		<path d="M112.3046,16.2228l-0.3901-1.3623h-0.1524c-0.3114,0.4953-0.7528,0.8782-1.3242,1.1481
			c-0.5714,0.27-1.2224,0.4046-1.9522,0.4046c-1.2513,0-2.1939-0.335-2.8291-1.005c-0.6352-0.6701-0.9524-1.633-0.9524-2.8902
			V5.5739h2.9053v6.2204c0,0.7678,0.136,1.3439,0.4092,1.7282c0.2732,0.3842,0.7081,0.576,1.3051,0.576
			c0.8125,0,1.3997-0.2713,1.7617-0.8139c0.3619-0.5432,0.5425-1.4431,0.5425-2.7009V5.5739h2.9053v10.6489H112.3046z"/>
		<path d="M121.6201,16.4133c-1.7143,0-3.0543-0.473-4.0192-1.4188c-0.9649-0.9465-1.4477-2.2858-1.4477-4.0206
			c0-1.784,0.4461-3.1634,1.338-4.1382c0.8919-0.9747,2.1256-1.4621,3.7-1.4621c1.5054,0,2.6767,0.429,3.5148,1.2862
			s1.2572,2.0415,1.2572,3.5523v1.4103h-6.8673c0.0322,0.8257,0.2766,1.4701,0.7337,1.9338
			c0.4572,0.4637,1.0982,0.6949,1.9239,0.6949c0.6411,0,1.248-0.0663,1.8195-0.1996c0.5714-0.1333,1.1679-0.3461,1.7906-0.6384
			v2.2477c-0.5084,0.2542-1.051,0.4434-1.6289,0.5669C123.1565,16.3515,122.4517,16.4133,121.6201,16.4133z M121.2109,7.4407
			c-0.6161,0-1.0989,0.1951-1.4477,0.586c-0.3495,0.3901-0.5498,0.9446-0.6004,1.6619h4.0764
			c-0.0125-0.7173-0.1996-1.2716-0.5623-1.6619C122.3157,7.6357,121.8263,7.4407,121.2109,7.4407z"/>
		<path d="M133.9814,4.5552c-1.1114,0-1.9718,0.4172-2.5815,1.252s-0.9144,1.9989-0.9144,3.4906
			c0,3.1062,1.1652,4.6584,3.4958,4.6584c0.9781,0,2.1623-0.2443,3.5529-0.7337v2.4763c-1.1429,0.4769-2.4192,0.7147-3.8294,0.7147
			c-2.0258,0-3.5746-0.6141-4.6479-1.8431c-1.0733-1.2283-1.6093-2.9919-1.6093-5.2909c0-1.4477,0.2634-2.7161,0.7902-3.8051
			c0.5268-1.0891,1.2841-1.9239,2.2714-2.5052c0.9873-0.5806,2.1447-0.8717,3.4721-0.8717c1.3531,0,2.7114,0.3272,4.0764,0.9813
			l-0.9524,2.4001c-0.5202-0.2477-1.0444-0.4637-1.5712-0.6477C135.0074,4.6471,134.4898,4.5552,133.9814,4.5552z"/>
		<path d="M145.4296,5.3736c0.3941,0,0.7212,0.0289,0.9813,0.0861l-0.2194,2.7239c-0.2351-0.0638-0.5202-0.0952-0.8565-0.0952
			c-0.9275,0-1.65,0.2384-2.1675,0.714c-0.5177,0.4769-0.7765,1.1429-0.7765,2.0007v5.4197h-2.9046V5.5739h2.2005l0.4283,1.7906
			h0.1433c0.3297-0.5971,0.7763-1.0779,1.3386-1.4432C144.158,5.5562,144.7702,5.3736,145.4296,5.3736z"/>
		<path d="M157.2412,10.8793c0,1.7334-0.4572,3.0892-1.3714,4.0673c-0.9144,0.9781-2.1873,1.4667-3.8189,1.4667
			c-1.0233,0-1.9246-0.224-2.705-0.6713c-0.7817-0.448-1.3821-1.0904-1.8011-1.9285c-0.419-0.8382-0.6279-1.8162-0.6279-2.9342
			c0-1.74,0.4532-3.0925,1.3623-4.058c0.9077-0.9649,2.1834-1.4477,3.8281-1.4477c1.0221,0,1.9246,0.2226,2.705,0.6674
			c0.7817,0.4441,1.3807,1.0825,1.7998,1.9141C157.0309,8.7866,157.2412,9.7613,157.2412,10.8793z M149.8792,10.8793
			c0,1.0542,0.172,1.851,0.5188,2.391c0.3454,0.54,0.9091,0.81,1.6908,0.81c0.7738,0,1.3308-0.2686,1.671-0.8052
			c0.339-0.5366,0.5097-1.3347,0.5097-2.3956c0-1.0542-0.1721-1.8451-0.515-2.3719c-0.3429-0.5268-0.9038-0.7902-1.6854-0.7902
			c-0.7751,0-1.3334,0.2614-1.6763,0.7856C150.0499,9.0263,149.8792,9.8185,149.8792,10.8793z"/>
		<path d="M166.5829,13.0607c0,1.0923-0.3796,1.9239-1.139,2.4954c-0.758,0.5714-1.893,0.8572-3.4038,0.8572
			c-0.7751,0-1.4359-0.0526-1.9811-0.157c-0.5466-0.1051-1.0575-0.2588-1.5344-0.4618v-2.4001
			c0.54,0.2536,1.1481,0.4664,1.8248,0.6378c0.6753,0.1714,1.2716,0.2568,1.7854,0.2568c1.0536,0,1.5817-0.3048,1.5817-0.9143
			c0-0.2286-0.0709-0.4138-0.2101-0.5571c-0.1392-0.1426-0.381-0.3048-0.7239-0.4854c-0.3429-0.1813-0.8-0.3921-1.3714-0.6339
			c-0.8184-0.3429-1.4202-0.6608-1.805-0.9531c-0.3837-0.2916-0.6635-0.6266-0.8381-1.0043
			c-0.1747-0.3777-0.2614-0.8428-0.2614-1.3958c0-0.9458,0.3666-1.6776,1.0996-2.1953c0.733-0.5176,1.7735-0.7765,3.1201-0.7765
			c1.2821,0,2.5302,0.2798,3.7428,0.8382l-0.8763,2.0953c-0.5334-0.2286-1.0326-0.4158-1.4949-0.5616
			c-0.4637-0.1458-0.9367-0.2187-1.4202-0.2187c-0.8565,0-1.2848,0.2312-1.2848,0.6949c0,0.2602,0.1379,0.486,0.4138,0.6765
			s0.8815,0.473,1.8142,0.8474c0.8316,0.3363,1.4411,0.651,1.8287,0.9433c0.3876,0.2916,0.6726,0.6286,0.8578,1.0096
			C166.4909,12.0794,166.5829,12.5339,166.5829,13.0607z"/>
		<path d="M175.8892,13.0607c0,1.0923-0.3796,1.9239-1.139,2.4954c-0.758,0.5714-1.893,0.8572-3.4038,0.8572
			c-0.7751,0-1.4359-0.0526-1.9823-0.157c-0.5466-0.1051-1.0575-0.2588-1.5331-0.4618v-2.4001
			c0.54,0.2536,1.1469,0.4664,1.8248,0.6378c0.6753,0.1714,1.2716,0.2568,1.7854,0.2568c1.0536,0,1.5817-0.3048,1.5817-0.9143
			c0-0.2286-0.0709-0.4138-0.2101-0.5571c-0.1392-0.1426-0.381-0.3048-0.7239-0.4854c-0.3429-0.1813-0.8-0.3921-1.3714-0.6339
			c-0.8184-0.3429-1.4214-0.6608-1.805-0.9531c-0.3849-0.2916-0.6635-0.6266-0.8382-1.0043
			c-0.1747-0.3777-0.2627-0.8428-0.2627-1.3958c0-0.9458,0.3666-1.6776,1.1009-2.1953c0.733-0.5176,1.7735-0.7765,3.1201-0.7765
			c1.2821,0,2.5302,0.2798,3.7427,0.8382l-0.8763,2.0953c-0.5334-0.2286-1.0326-0.4158-1.4949-0.5616
			c-0.4637-0.1458-0.9367-0.2187-1.4202-0.2187c-0.8565,0-1.2848,0.2312-1.2848,0.6949c0,0.2602,0.1379,0.486,0.4138,0.6765
			s0.8815,0.473,1.8142,0.8474c0.8316,0.3363,1.4411,0.651,1.8287,0.9433c0.3876,0.2916,0.6726,0.6286,0.8578,1.0096
			C175.7973,12.0794,175.8892,12.5339,175.8892,13.0607z"/>
		<path d="M182.4761,2.2975h4.3339c1.9745,0,3.4077,0.2812,4.2997,0.8428c0.892,0.5623,1.3386,1.4555,1.3386,2.6813
			c0,0.8316-0.1957,1.5147-0.586,2.0481c-0.3915,0.5334-0.9104,0.8539-1.558,0.9617v0.0952c0.8829,0.1971,1.52,0.5649,1.9101,1.1048
			c0.3902,0.54,0.586,1.2572,0.586,2.1532c0,1.2698-0.4585,2.2602-1.3768,2.9716c-0.917,0.7114-2.1637,1.0668-3.7375,1.0668h-5.2102
			V2.2975H182.4761z M185.428,7.8118h1.7143c0.8,0,1.3794-0.1235,1.738-0.3711c0.3586-0.2477,0.5386-0.6575,0.5386-1.229
			c0-0.5334-0.1957-0.9157-0.5858-1.1475c-0.3903-0.2319-1.0076-0.3475-1.8524-0.3475h-1.5528L185.428,7.8118L185.428,7.8118z
			 M185.428,10.1555v3.6291h1.9246c0.8118,0,1.4122-0.1556,1.7998-0.4664c0.3876-0.3113,0.5806-0.7876,0.5806-1.4293
			c0-1.1561-0.825-1.7334-2.4763-1.7334H185.428z"/>
		<path d="M197.4773,16.2228h-2.9046V1.4023h2.9046V16.2228z"/>
		<path d="M207.2894,16.2228l-0.3903-1.3623h-0.1524c-0.3113,0.4953-0.7528,0.8782-1.3242,1.1481
			c-0.5728,0.27-1.2231,0.4046-1.9535,0.4046c-1.2507,0-2.1939-0.335-2.8285-1.005c-0.6359-0.6701-0.9524-1.633-0.9524-2.8902
			V5.5739h2.9046v6.2204c0,0.7678,0.1367,1.3439,0.4099,1.7282c0.2732,0.3842,0.7081,0.576,1.3045,0.576
			c0.8132,0,1.4004-0.2713,1.763-0.8139c0.3613-0.5432,0.5425-1.4431,0.5425-2.7009V5.5739h2.9046v10.6489H207.2894z"/>
		<path d="M216.6049,16.4133c-1.7143,0-3.0543-0.473-4.0199-1.4188c-0.9642-0.9465-1.4477-2.2858-1.4477-4.0206
			c0-1.784,0.4466-3.1634,1.3386-4.1382s2.1256-1.4621,3.6994-1.4621c1.5056,0,2.6774,0.429,3.5155,1.2862
			c0.8382,0.8572,1.2572,2.0415,1.2572,3.5523v1.4103h-6.868c0.0328,0.8257,0.2773,1.4701,0.7344,1.9338
			c0.4571,0.4637,1.0982,0.6949,1.9233,0.6949c0.6411,0,1.248-0.0663,1.8195-0.1996c0.5715-0.1333,1.1679-0.3461,1.7906-0.6384
			v2.2477c-0.5083,0.2542-1.051,0.4434-1.6291,0.5669C218.1406,16.3515,217.4364,16.4133,216.6049,16.4133z M216.195,7.4407
			c-0.6161,0-1.0982,0.1951-1.4477,0.586c-0.3495,0.3901-0.5491,0.9446-0.6004,1.6619h4.0764
			c-0.0118-0.7173-0.1996-1.2716-0.5623-1.6619C217.2998,7.6357,216.8111,7.4407,216.195,7.4407z"/>
		<path d="M231.5626,12.356c0,1.2572-0.452,2.2477-1.3571,2.9716c-0.9052,0.7239-2.1637,1.0857-3.7768,1.0857
			c-1.4858,0-2.7995-0.2791-3.9424-0.8382v-2.7429c0.9392,0.419,1.7341,0.7147,2.3857,0.8854
			c0.6503,0.1721,1.2454,0.2575,1.7854,0.2575c0.6476,0,1.1442-0.1235,1.491-0.3718c0.3455-0.247,0.5188-0.6154,0.5188-1.1048
			c0-0.2725-0.0761-0.5156-0.2286-0.7284c-0.1524-0.2128-0.3757-0.4172-0.6713-0.6148c-0.2955-0.1971-0.8973-0.511-1.805-0.9433
			c-0.8512-0.3994-1.4885-0.7836-1.9141-1.1522c-0.4256-0.3685-0.766-0.7968-1.0194-1.2862
			c-0.2536-0.4887-0.381-1.0602-0.381-1.7143c0-1.2315,0.4177-2.1998,1.252-2.9046c0.8355-0.7048,1.9889-1.0575,3.4629-1.0575
			c0.7239,0,1.4136,0.0861,2.0718,0.2575c0.6569,0.1714,1.3439,0.4124,2.0611,0.7239l-0.9524,2.2951
			c-0.7423-0.3048-1.3571-0.517-1.8431-0.6378c-0.4848-0.1208-0.9629-0.1807-1.4332-0.1807c-0.5583,0-0.9866,0.1301-1.2862,0.3901
			c-0.2982,0.2602-0.4466,0.6004-0.4466,1.0194c0,0.2602,0.0604,0.4867,0.18,0.6805c0.1208,0.1937,0.314,0.381,0.5767,0.5623
			c0.2641,0.1807,0.8881,0.5065,1.872,0.9761c1.3019,0.622,2.1939,1.2461,2.676,1.8713
			C231.3209,10.6802,231.5626,11.4482,231.5626,12.356z"/>
		<path d="M243.2008,16.2228h-2.9059V10.003c0-1.537-0.5715-2.3056-1.7143-2.3056c-0.8132,0-1.4004,0.2766-1.7617,0.8289
			c-0.3625,0.5523-0.5439,1.4477-0.5439,2.6859v5.0105h-2.9046V1.4023h2.9046v3.0189c0,0.2351-0.021,0.7876-0.0657,1.6578
			l-0.067,0.8565h0.1524c0.6477-1.0411,1.6763-1.5619,3.0859-1.5619c1.252,0,2.2005,0.337,2.8481,1.0103
			c0.6477,0.6726,0.9722,1.6382,0.9722,2.8954v6.9435H243.2008z"/>
		<path d="M245.2869,2.8211c0-0.9458,0.5268-1.4188,1.5804-1.4188c1.0549,0,1.5817,0.473,1.5817,1.4188
			c0,0.4513-0.1314,0.802-0.3954,1.0529c-0.2627,0.2509-0.6582,0.3764-1.1863,0.3764
			C245.8137,4.2504,245.2869,3.7735,245.2869,2.8211z M248.315,16.2228h-2.9046V5.5739h2.9046V16.2228z"/>
		<path d="M255.4024,16.4133c-1.7143,0-3.0543-0.473-4.0187-1.4188c-0.9656-0.9465-1.4477-2.2858-1.4477-4.0206
			c0-1.784,0.4454-3.1634,1.3373-4.1382c0.892-0.9747,2.1256-1.4621,3.7007-1.4621c1.5056,0,2.676,0.429,3.5141,1.2862
			c0.8382,0.8572,1.2573,2.0415,1.2573,3.5523v1.4103h-6.8668c0.0315,0.8257,0.2759,1.4701,0.733,1.9338
			c0.4571,0.4637,1.0982,0.6949,1.9246,0.6949c0.6411,0,1.248-0.0663,1.8195-0.1996c0.5714-0.1333,1.1679-0.3461,1.7906-0.6384
			v2.2477c-0.5084,0.2542-1.051,0.4434-1.6291,0.5669C256.9395,16.3515,256.2341,16.4133,255.4024,16.4133z M254.9939,7.4407
			c-0.6161,0-1.0996,0.1951-1.4477,0.586c-0.3495,0.3901-0.5505,0.9446-0.6004,1.6619h4.0764
			c-0.0132-0.7173-0.1996-1.2716-0.5623-1.6619C256.0987,7.6357,255.6087,7.4407,254.9939,7.4407z"/>
		<path d="M264.4276,16.2228h-2.9046V1.4023h2.9046V16.2228z"/>
		<path d="M270.0673,16.4133c-1.2506,0-2.2333-0.486-2.9479-1.4569c-0.7146-0.9722-1.072-2.3181-1.072-4.039
			c0-1.7466,0.3639-3.1069,1.0904-4.0817c0.7278-0.9747,1.7289-1.4621,3.0058-1.4621c1.34,0,2.3621,0.5209,3.0662,1.5619h0.0959
			c-0.1458-0.7935-0.2194-1.5015-0.2194-2.1236V1.4023H276v14.8205h-2.2281l-0.5623-1.3807h-0.1235
			C272.4254,15.8892,271.4192,16.4133,270.0673,16.4133z M271.0854,14.0986c0.7435,0,1.2874-0.2155,1.6343-0.6477
			c0.3455-0.4315,0.5347-1.1646,0.5662-2.2005v-0.3145c0-1.1429-0.1761-1.9613-0.5281-2.4566s-0.9262-0.7435-1.7196-0.7435
			c-0.6476,0-1.1508,0.2752-1.5095,0.8243c-0.3586,0.5491-0.5386,1.3472-0.5386,2.3956c0,1.0477,0.1813,1.8339,0.5439,2.3575
			C269.8953,13.8372,270.4128,14.0986,271.0854,14.0986z"/>
		<path d="M96.0343,32.5567c0,1.6881-0.4092,3.0071-1.2283,3.9568c-0.8191,0.9485-1.9495,1.424-3.3906,1.424
			c-0.9078,0-1.7078-0.2194-2.4001-0.6569c-0.6924-0.4388-1.2224-1.0668-1.5909-1.8865c-0.3678-0.8184-0.5518-1.7656-0.5518-2.8376
			c0-1.6895,0.4092-3.0058,1.2283-3.949c0.8191-0.9419,1.943-1.4136,3.3717-1.4136c1.422,0,2.538,0.4769,3.348,1.4332
			C95.6298,29.5826,96.0343,30.8923,96.0343,32.5567z M87.8632,32.5567c0,1.4215,0.3126,2.5316,0.938,3.3277
			c0.6253,0.7974,1.5095,1.1955,2.6524,1.1955c1.1429,0,2.0271-0.3981,2.6524-1.1955c0.6254-0.7961,0.938-1.9062,0.938-3.3277
			c0-1.4293-0.3153-2.5368-0.9472-3.325c-0.6319-0.787-1.5193-1.181-2.6622-1.181c-1.1429,0-2.0238,0.3928-2.6432,1.1771
			C88.1725,30.0121,87.8632,31.1208,87.8632,32.5567z"/>
		<path d="M102.1647,28.2137h-2.4382v9.5336h-0.9426v-9.5336h-1.9253v-0.553l1.9253-0.352v-0.8
			c0-1.2703,0.2331-2.2017,0.6995-2.7955c0.4671-0.5938,1.2303-0.8907,2.2905-0.8907c0.5714,0,1.1429,0.0854,1.7143,0.2575
			l-0.2187,0.8184c-0.5077-0.159-1.0128-0.2378-1.514-0.2378c-0.737,0-1.2593,0.2181-1.5673,0.653s-0.4618,1.1403-0.4618,2.119
			v0.9617h2.4382v0.8195H102.1647z"/>
		<path d="M112.1233,37.7472h-0.9813v-13.011h-4.5237v-0.9143h10.0295v0.9143h-4.5244v13.011H112.1233z"/>
		<path d="M120.5114,37.9377c-1.5042,0-2.6774-0.4637-3.5188-1.3912c-0.8414-0.9262-1.2618-2.2254-1.2618-3.8951
			c0-1.6514,0.406-2.9729,1.2192-3.9675c0.8125-0.9932,1.9075-1.4897,3.2856-1.4897c1.2192,0,2.1807,0.4256,2.8862,1.2757
			c0.7041,0.8513,1.0569,2.0073,1.0569,3.4669v0.7619h-7.4572c0.0125,1.4227,0.3442,2.5079,0.9952,3.258
			c0.651,0.7487,1.5824,1.1233,2.795,1.1233c0.5912,0,1.1101-0.0408,1.5574-0.1235c0.448-0.0827,1.0148-0.2602,1.7006-0.5334v0.8578
			c-0.5846,0.2536-1.1246,0.427-1.6198,0.5189C121.6543,37.8917,121.1084,37.9377,120.5114,37.9377z M120.2355,28.0323
			c-0.9971,0-1.7972,0.3284-2.4001,0.9852c-0.6029,0.6569-0.9558,1.6054-1.0575,2.8428h6.4004c0-1.1994-0.2602-2.1374-0.7804-2.8139
			C121.8769,28.37,121.1564,28.0323,120.2355,28.0323z"/>
		<path d="M129.0912,32.4227l-3.6093-5.0288h1.0857l3.0859,4.3628l3.057-4.3628h1.0385l-3.5528,5.0288l3.8105,5.3245h-1.0957
			l-3.2573-4.6189l-3.2764,4.6189h-1.0378L129.0912,32.4227z"/>
		<path d="M142.0614,37.7472l-0.2378-1.6382h-0.0761c-0.5202,0.666-1.0563,1.1377-1.6054,1.4136
			c-0.5491,0.2772-1.1974,0.4151-1.9469,0.4151c-1.0162,0-1.8064-0.2602-2.3712-0.7817c-0.5655-0.5202-0.848-1.2415-0.848-2.1611
			c0-1.0103,0.4204-1.7945,1.2618-2.3528c0.8414-0.5596,2.0593-0.8539,3.6521-0.8854l1.9718-0.0578v-0.6858
			c0-0.984-0.1996-1.7275-0.6004-2.2281c-0.3994-0.5019-1.0444-0.7528-1.9324-0.7528c-0.959,0-1.9529,0.2666-2.9814,0.8
			l-0.3527-0.8198c1.137-0.5334,2.2609-0.8,3.3723-0.8c1.1363,0,1.985,0.2955,2.5473,0.8868
			c0.5623,0.5899,0.8434,1.5108,0.8434,2.7615v6.8864h-0.6964V37.7472z M138.2522,37.0799c1.1048,0,1.9765-0.3153,2.6136-0.9472
			c0.6384-0.6319,0.9577-1.5095,0.9577-2.6339v-1.0181l-1.8089,0.0761c-1.4543,0.0697-2.4908,0.2955-3.1101,0.6805
			c-0.6188,0.3837-0.9281,0.9827-0.9281,1.7959c0,0.6477,0.1984,1.1508,0.5951,1.5095
			C136.9681,36.9012,137.5284,37.0799,138.2522,37.0799z"/>
		<path d="M152.0415,35.0514c0,0.9275-0.352,1.6395-1.0575,2.1388c-0.7041,0.4979-1.7038,0.7475-2.9992,0.7475
			c-1.3846,0-2.4829-0.2128-3.2961-0.6384v-1.0194c1.0417,0.5215,2.14,0.7817,3.2961,0.7817c1.0221,0,1.7984-0.1708,2.3279-0.5097
			c0.5307-0.3402,0.7961-0.7922,0.7961-1.3571c0-0.5215-0.2115-0.959-0.6332-1.3151c-0.4231-0.3547-1.1167-0.7041-2.0823-1.047
			c-1.0339-0.3744-1.7617-0.6976-2.1807-0.9669c-0.419-0.2707-0.7343-0.5753-0.9472-0.9143
			c-0.2128-0.3402-0.3192-0.7541-0.3192-1.2427c0-0.7751,0.3258-1.3873,0.9761-1.8378c0.6516-0.4519,1.5607-0.6765,2.7285-0.6765
			c1.118,0,2.1782,0.2089,3.1818,0.6279l-0.3534,0.8578c-1.0155-0.419-1.9588-0.6293-2.8285-0.6293
			c-0.8447,0-1.5147,0.1406-2.01,0.419c-0.4953,0.2798-0.7423,0.6674-0.7423,1.1627c0,0.54,0.1918,0.9708,0.5767,1.2953
			c0.3837,0.3231,1.1351,0.6858,2.2518,1.0851c0.934,0.3363,1.6132,0.6398,2.0388,0.9104c0.4256,0.2693,0.7435,0.5753,0.9563,0.9182
			C151.9351,34.1844,152.0415,34.5877,152.0415,35.0514z"/>
	</g>
	<g>
		<path class="st0" d="M29.6677,37.1746c0-1.066,0.8714-1.9371,1.9472-1.9371c1.0732,0,1.9387,0.8713,1.9387,1.9371
			c0,1.0786-0.8657,1.9488-1.9387,1.9488C30.539,39.1234,29.6677,38.253,29.6677,37.1746z M33.2472,37.1746
			c0-0.9434-0.6894-1.6779-1.6323-1.6779c-0.9488,0-1.6402,0.7344-1.6402,1.6779c0,0.954,0.6914,1.6958,1.6402,1.6958
			C32.5579,38.8702,33.2472,38.1286,33.2472,37.1746z M32.5856,38.2645h-0.3169l-0.6218-1.0021h-0.488v1.0021h-0.2653V36.095h0.9482
			c0.5732,0,0.7684,0.2144,0.7684,0.5733c0,0.4258-0.2961,0.5858-0.6816,0.5942L32.5856,38.2645z M31.5653,37.0532
			c0.307,0,0.7599,0.0523,0.7599-0.3892c0-0.3389-0.2778-0.3808-0.5449-0.3808h-0.6214v0.7699h0.4064V37.0532z"/>
		<path class="st0" d="M66.2611,37.1746c0-1.066,0.8709-1.9371,1.9476-1.9371c1.0712,0,1.9378,0.8713,1.9378,1.9371
			c0,1.0786-0.8667,1.9488-1.9378,1.9488C67.132,39.1234,66.2611,38.253,66.2611,37.1746z M69.8401,37.1746
			c0-0.9434-0.6867-1.6779-1.6313-1.6779c-0.9476,0-1.639,0.7344-1.639,1.6779c0,0.954,0.6914,1.6958,1.639,1.6958
			C69.1535,38.8702,69.8401,38.1286,69.8401,37.1746z M69.1791,38.2645h-0.3169l-0.6208-1.0021h-0.4884v1.0021H67.485V36.095h0.9486
			c0.5753,0,0.7699,0.2144,0.7699,0.5733c0,0.4258-0.2961,0.5858-0.6816,0.5942L69.1791,38.2645z M68.1571,37.0532
			c0.3086,0,0.7594,0.0523,0.7594-0.3892c0-0.3389-0.2756-0.3808-0.5424-0.3808h-0.6212v0.7699h0.4042V37.0532z"/>
		<polygon class="st0" points="27.7576,38.9381 27.7576,28.233 38.4622,28.233 38.4622,11.1184 27.7576,11.1184 27.7576,0.4173 
			10.7031,0.4173 10.7031,11.1184 0,11.1184 0,28.233 10.7031,28.233 10.7031,38.9381 		"/>
		<path class="st0" d="M59.5868,39.3525c7.3918-4.0827,11.8736-10.5881,14.1812-17.7251C76.164,14.2225,75.7675,5.4588,72.9914,0
			c-4.2218,2.1265-8.4683,3.193-13.4044,3.2082C54.6496,3.2218,50.4033,2.1265,46.1825,0
			c-2.7756,5.4588-3.1747,14.2225-0.7783,21.6273C47.7139,28.7644,52.195,35.2697,59.5868,39.3525L59.5868,39.3525z"/>
		<g>
			<path class="st1" d="M9.362,15.9808l7.0952,0.6862c1.3306,0.1821,1.4859,1.474,1.1333,2.2506l-4.8608,9.1252l0.0063-0.0126
				c-2.4655-1.9393-4.0492-4.9435-4.0492-8.3227c0-1.3106,0.2411-2.569,0.6768-3.7302L9.362,15.9808z"/>
			<path class="st1" d="M29.1594,15.9808l-7.0963,0.6862c-1.3327,0.1821-1.4875,1.474-1.1344,2.2506l4.862,9.1252L25.7827,28.03
				c2.4644-1.9393,4.0487-4.9435,4.0487-8.3227c0-1.3106-0.2389-2.569-0.6762-3.7302L29.1594,15.9808z"/>
			<path class="st1" d="M19.2602,10.4792c1.2511,0,1.6098,1.4153,1.0569,2.147c-0.4975,0.6464-0.5947,0.8378-0.567,1.4466
				c0.0199,0.512,0.4922,1.139,1.5674,1.1637h7.523c-1.6831-3.6057-5.3411-6.0999-9.5806-6.0999
				c-4.2407,0-7.8976,2.4943-9.5839,6.0999h7.5251c1.0743-0.0246,1.5466-0.6516,1.5691-1.1637
				c0.0256-0.6088-0.0702-0.8003-0.5696-1.4466C17.6503,11.8946,18.006,10.4792,19.2602,10.4792z"/>
			<path class="st1" d="M19.2602,30.279c2.147,0,4.1449-0.639,5.8123-1.7415l0.0015,0.0104l-5.1543-7.7061
				c-0.3631-0.4942-0.9378-0.5386-1.3201,0l-5.1533,7.7061l0.0009-0.0104C15.1142,29.64,17.1116,30.279,19.2602,30.279"/>
			<path class="st1" d="M59.578,36.0448c6.0864-3.77,9.3265-9.1665,11.4039-15.2649c1.8431-5.4117,2.2929-11.7454,0.2668-16.6901
				c-3.0413,1.0455-4.8217,1.3688-6.477,1.6256c-1.5424,0.24-2.9201,0.3861-5.1784,0.4184h-0.0152
				c-2.2551-0.0324-3.6349-0.1784-5.1752-0.4184c-1.6553-0.2568-3.4384-0.5801-6.4791-1.6256
				C45.8986,9.0346,46.35,15.3683,48.1926,20.78c2.0758,6.0983,5.3175,11.4949,11.4007,15.2649H59.578z"/>
		</g>
		<g>
			<path class="st0" d="M10.4155,17.542l5.3702,0.4953c0.3872,0.0319,0.4185,0.1941,0.3285,0.419l-3.76,7.1805
				c-1.3708-1.5922-2.1988-3.6642-2.1988-5.9296C10.1555,18.961,10.2449,18.2355,10.4155,17.542z"/>
			<path class="st0" d="M16.7293,10.9592c-0.535,0.8934-0.1009,2.0586,0.4053,2.6109c0.0947,0.0936,0.0475,0.1941-0.0371,0.2181
				l-4.7588,0.0032C13.4814,12.4567,15.0007,11.4587,16.7293,10.9592z"/>
			<path class="st0" d="M28.1044,17.542l-5.3708,0.4953c-0.3892,0.0319-0.418,0.1941-0.329,0.419l3.762,7.1805
				c1.3698-1.5922,2.1973-3.6642,2.1973-5.9296C28.3638,18.961,28.2743,18.2355,28.1044,17.542z"/>
			<path class="st0" d="M21.7889,10.9592c0.5355,0.8934,0.1016,2.0586-0.4059,2.6109c-0.0942,0.0936-0.0482,0.1941,0.0377,0.2181
				l4.7579,0.0032C25.0384,12.4567,23.5201,11.4587,21.7889,10.9592z"/>
			<path class="st0" d="M59.5827,34.5469c4.1146-2.5858,8.78-8.4625,10.6444-16.19c0.9906-4.1,1.2673-8.7077-0.0219-12.3631
				c-1.8442,0.4911-3.5628,0.8975-5.3416,1.137c-1.7782,0.2427-3.5382,0.4142-5.2704,0.4258h-0.0136
				c-1.7306-0.0116-3.4922-0.1831-5.269-0.4258c-1.7813-0.2394-3.5005-0.6458-5.3425-1.137
				c-1.2899,3.6554-1.0121,8.2631-0.0235,12.3631c1.8655,7.7276,6.5309,13.6042,10.647,16.19
				C59.5915,34.547,59.5827,34.547,59.5827,34.5469z"/>
			<path class="st0" d="M19.1106,22.5845c0.0833-0.1068,0.2008-0.1172,0.2977,0l3.5554,5.4436
				c-1.1312,0.502-2.386,0.7845-3.7035,0.7845c-1.3201,0-2.5722-0.2825-3.7057-0.7845L19.1106,22.5845
				c0.0989-0.1172,0.215-0.1068,0.2977,0"/>
		</g>
		<g>
			<path class="st1" d="M55.385,10.3024c-1.3914,0.7229-1.8729,2.4233-1.2494,3.7945c0.5417,1.19,1.6129,1.9791,2.8535,2.3473
				c0.6241,0.1883,1.2527,0.2333,1.8981,0.2637c0.7878,0.0382,1.5021,0.0612,2.2614,0.2548
				c0.1612,0.0424,0.3358,0.1365,0.4227,0.293c0.2003,0.3807,0.0161,0.7965-0.3824,0.9131
				c-0.0094,0.6627-0.0665,1.9948-0.0665,1.9948s3.227-0.3055,2.682-3.2104c-0.1317-0.6951-0.6795-1.4068-1.3028-1.729
				c-1.6198-0.8295-3.396-0.4692-5.0565-1.0074c-0.5565-0.1815-1.3362-0.4576-1.4865-1.0852
				c-0.0612-0.2516-0.0062-0.7537,0.2532-0.8352c0.4174-0.1344,0.8803,0.2164,1.4881,0.3568
				c0.3839,0.0878,0.7642,0.0868,1.0665-0.0047c0.1318-0.0386,0.33-0.0931,0.3452-0.169c-0.0167-0.067-0.1675-0.1271-0.2452-0.168
				c-0.1863-0.0967-0.3792-0.1396-0.5822-0.217c-0.3336-0.1271-0.6684-0.2881-1.0062-0.477
				c0.3179-0.0644,0.8535-0.0811,1.1679-0.0444c0.2542,0.0319,1.0366,0.0214,1.2704-0.0402
				c0.0507-0.0116,0.1675-0.0597,0.1166-0.1454c-0.0909-0.1538-0.2458-0.2086-0.3483-0.3515
				c-0.229-0.3111-0.4262-0.6323-0.7945-0.772C57.6262,9.8557,56.4436,9.7516,55.385,10.3024z"/>
			<path class="st1" d="M60.7716,20.6634l0.0183-3.3897c0,0-0.4357-0.0904-1.045-0.1286c-0.7914-0.0533-1.1506-0.0433-1.1506-0.0433
				l-0.0027,0.2856c0,0-0.3818,0.1612-0.4398,0.2647c-0.0266,0.0471-0.1277,0.1757-0.0806,0.3028
				c0.3133,0.8363,0.7453,1.6495,0.8682,2.5445C59.5305,20.5808,60.0519,20.565,60.7716,20.6634z"/>
			<path class="st1" d="M56.7198,20.1492c-0.1412,1.3306,0.727,2.0408,1.6862,2.2699c0.7579,0.1799,1.4943,0.2195,2.2846,0.3117
				c0.0994,0.0125,0.3111,0.0167,0.4708,0.0868c0.1396,0.0617,0.2101,0.1433,0.2364,0.2311
				c0.0381,0.1235,0.0229,0.2177-0.0581,0.316c-0.0858,0.1077-0.3128,0.1673-0.3128,0.1673l-0.0465,1.5973
				c0,0,0.6444-0.0261,1.1659-0.3378c0.4922-0.297,0.7976-0.6758,0.9084-1.1506c0.1271-0.5502,0.0397-1.0879-0.3483-1.6245
				c-0.2579-0.3557-0.7092-0.6109-1.1647-0.77c-0.9434-0.3294-1.9633-0.2793-2.942-0.4194
				c-0.1474-0.0187-0.2845-0.1359-0.2981-0.2699c-0.0245-0.2494,0.2072-0.362,0.2072-0.362s-0.1161-0.3819-0.2405-0.751
				c-0.1099-0.2814-0.2694-0.6715-0.3792-0.8782C57.2245,18.8495,56.7935,19.4636,56.7198,20.1492z"/>
			<path class="st1" d="M60.6905,23.1033l-0.0246,2.8672l-0.7181-0.3294l-0.7107-0.295l-0.0152-2.3934
				C59.8583,23.0291,60.1486,23.0363,60.6905,23.1033z"/>
			<path class="st1" d="M57.4775,24.6869c-0.3897,0.9258,0.1009,1.8347,0.8834,2.2197c0.408,0.1988,0.9435,0.3808,1.384,0.5502
				c0.4299,0.1643,1.1925,0.638,1.2484,0.8662c0.0391,0.1369-0.1255,0.274-0.1255,0.274L60.85,29.7164
				c0,0,0.4681-0.0994,0.8128-0.385c0.3242-0.2678,0.5585-0.615,0.5571-1.1737c-0.0031-0.613-0.2871-1.0922-1.1585-1.5995
				c-0.6768-0.3995-1.4975-0.7144-2.1355-0.999c-0.0936-0.0397-0.1746-0.2228-0.1391-0.3325
				c0.0377-0.1193,0.1114-0.1612,0.1114-0.1612l-0.0152-1.294c0,0-0.4906,0.0951-0.7217,0.2311
				C57.9468,24.1294,57.624,24.3419,57.4775,24.6869z"/>
			<path class="st1" d="M60.5718,28.4967c0.0078-0.0942-0.0241-0.1067-0.0665-0.1684c-0.1929-0.1988-0.4687-0.3379-0.535-0.3777
				c-0.2003-0.1181-0.6422-0.2825-0.6422-0.2825s0.0303,2.9322,0.0842,4.4478c0.0116,0.3463,0.2041,0.435,0.5355,0.454
				c0.4049,0.023,0.5219-0.23,0.5272-0.3787C60.4922,31.7069,60.5524,29.6013,60.5718,28.4967z"/>
			<path class="st1" d="M60.8819,9.6203c0.146,0.1083,0.146,0.1161,0.1903,0.3321c0.0994,0.4676-0.0047,1.202,0.0891,1.5231
				c0.0476,0.1034,0.1532,0.1014,0.2316,0.0581c0.6506-0.352,1.0926-0.9535,1.7473-1.2338
				c0.3102-0.1308,1.1658,0.2986,0.9671,0.9419c-0.092,0.3008-0.229,0.3461-0.4173,0.5439
				c-0.3808,0.3986-0.9242,0.7736-1.3965,1.2878c-0.3206,0.3515-0.7072,0.6035-0.9539,0.9995
				c-0.0775,0.1244-0.2072,0.2981-0.2072,0.2981c-0.9137-0.1873-1.8311-0.1543-2.5429-0.2981l-0.0016-1.058
				c0,0,0.7259-0.1224,0.8624-0.4781c0.0094-0.0313-0.0105-0.1548-0.115-0.2311c-0.1224-0.0927-0.3379-0.1878-0.4033-0.2113
				c0.727,0.1145,1.1795,0.2364,1.8824,0.5433c0.0476-0.0784,0.0199-0.2526-0.0334-0.3122c-0.0958-0.1072-0.148-0.1427-0.395-0.2014
				c-0.4303-0.1129-1.5984-0.2552-1.5984-0.2552s0.5402-0.0031,0.9922-0.0768c0.2211-0.0371,0.4011-0.08,0.4502-0.1538
				c0.0518-0.113-0.0418-0.2834-0.1987-0.4461c-0.1021-0.1108-0.2177-0.2238-0.305-0.3383
				c-0.1056-0.148-0.2789-0.4142-0.4697-0.5822c-0.1653-0.1458-0.577-0.3593-0.577-0.3593s-0.0737-0.5681,0.0418-0.7961
				c0.0858-0.1706,0.3055-0.2662,0.4231-0.2081C59.6685,9.2025,60.1837,9.499,60.8819,9.6203z"/>
			<g>
				<path class="st1" d="M58.6204,29.5783c-0.1764,0.184-0.4723,0.5575-0.5236,1.1569c-0.0455,0.5355,0.0753,0.6863,0.2124,0.975
					c0.1103,0.2374,0.3682,0.2238,0.4597,0.0031c0.0737-0.18-0.0335-0.3472,0.0323-0.7416
					c0.0523-0.2845,0.2794-0.4424,0.2794-0.4424l-0.0215-1.3043C59.0591,29.2247,58.8546,29.3314,58.6204,29.5783z"/>
			</g>
		</g>
		<g>
			<path class="st0" d="M58.5816,10.712c-0.1349,0.0962-0.2284,0.1956-0.3796,0.2175c-0.2977,0.0491-0.2552-0.2103-0.4624-0.3557
				c-0.125-0.0905-0.2436,0.0245-0.3573-0.1842c0.4341,0.0125,1.0047-0.025,1.3285,0.3039
				C58.671,10.6722,58.5994,10.6999,58.5816,10.712z"/>
		</g>
	</g>
</g>
</svg>
